<?xml version="1.0" encoding="utf-8"?>
<!-- Generator: Adobe Illustrator 21.0.0, SVG Export Plug-In . SVG Version: 6.00 Build 0)  -->
<svg version="1.1" id="Layer_1" xmlns="http://www.w3.org/2000/svg" xmlns:xlink="http://www.w3.org/1999/xlink" x="0px" y="0px"
	 viewBox="0 280 1200 900" style="enable-background:new 0 0 1200 1200;" xml:space="preserve">
<style type="text/css">
	.st0{fill:#FFFFFF;}
	.st1{fill:#EDA677;}
	.st2{fill:#1B384C;}
	.st3{fill:#DDDBDB;}
	.st4{fill:#E9E9F0;}
	.st5{fill:#0E2A30;}
	.st6{opacity:0.2;fill:#FFFFFF;enable-background:new    ;}
	.st7{fill:#9E302E;}
	.st8{fill:#FF641D;}
	.st9{fill:#F9F9F9;}
	.st10{fill:#B0B0B0;}
	.st11{fill:#D34139;}
	.st12{fill:#E74C3C;}
	.st13{fill:#5B5B5B;stroke:#808285;stroke-miterlimit:10;}
	.st14{fill:#FFFFFF;stroke:#231F20;stroke-width:4;stroke-miterlimit:10;}
	.st15{stroke:#231F20;stroke-width:2;stroke-miterlimit:10;}
</style>
<g>
	<g>
	<circle fill="none" stroke="#fff" stroke-width="8" stroke-miterlimit="15" stroke-dasharray="14.2472,14.2472" cx="585.7" cy="613.1" r="300" >
      <animateTransform 
         attributeName="transform" 
         attributeType="XML" 
         type="rotate"
         dur="20s" 
         from="0 585.7 613.1"
         to="360 585.7 613.1" 
         repeatCount="indefinite" />
    </circle>
	<circle fill="none" stroke="#fff" stroke-width="6" stroke-miterlimit="10" stroke-dasharray="40,40" cx="585.7" cy="613.1" r="330">
	      <animateTransform 
	         attributeName="transform" 
	         attributeType="XML" 
	         type="rotate"
	         dur="10s" 
	         from="0 585.7 613.1" 
	         to="-360 585.7 613.1" 
	         repeatCount="indefinite" />
	</circle>
		<circle fill="#000" fill-opacity="0.2" cx="585.7" cy="613.1" r="270.1"/>
	</g>
	<path class="st1" d="M698.9,806.3c-12.8-21.8-48.6-26.5-29.7-40.3c-0.5,0.4,7.2-6.4,9.1-8.6c0.8-0.9,1.4-1.5,1.8-2
		c0.3-0.5,0.6-1.1,1.1-2c0.8-1.4,3.8-9.1,2.9-5.9c0.8-2.5,1.6-5.1,2.1-7.7c0.2-1.3,0.4-2.2,0.5-2.8c0.1-1.5,0.3-3,0.4-4.5
		c0.2-4.1,0.4-8.1,0.5-12.2c0.1-8.9,0-17.9,0-26.8c0-11.8,3.9-21.1,10-27.8c-11-7.1-23-8.1-27.3-1.9l-1.5,2.2l-6.7,9.6l-0.4,0.6
		l-5-3.6l6.7-9.5l6.8-9.6l5.5-7.7c4.5-6.4-1.1-18.2-12.5-26.2c-11.4-8.1-24.4-9.4-28.9-3l-5.5,7.7l-6.8,9.6l-6.7,9.5l-5-3.6
		l30.5-43.2l0,0c0.2-0.3,0.5-0.6,0.8-1l40.1-56.8c7.3-10.4,4-25.4-7.4-33.4c-11.4-8.1-26.6-6.2-34,4.2l-40.1,56.8
		c-0.2,0.3-0.4,0.7-0.7,1.1h-0.1l-88.2,125L487.7,738l-6.5-126.3c3.5-14.9,5.7-29.3-6.6-38c-12.3-8.7-29.3-5.7-38,6.6L429.4,686
		c0,0-12.2,28.9-3.7,74l19.8,39.9c0.9,230.2,14.2,151.3,0.9,169.8l168.3,19.1c4.8-19.1,1-112.1,1-112.1c6.8-2.2,26-7.9,35.6-13
		c4.6-2.4,12.2-7.3,21.4-18.6C689.3,822.3,703,813.4,698.9,806.3z"/>
	<path class="st1" d="M756.5,468.8c-11.4-8.1-26.6-6.2-34,4.2l-40.1,56.8c-0.2,0.3-0.4,0.7-0.7,1.1h-0.1L593.4,656l-0.4-0.3
		c0.1,0.5,0.2,1,0.2,1.5c3,18.5,4.3,39.9,10.8,57.8c0,0,0,0,0.1,0.1c0.1,0,0.2,0.1,0.2,0.1c0.1-0.8,1.2,0.2,1.7,0.9
		c0.1,0.1,0.2,0.1,0.3,0.2c0.3,0.1,0.6,0.2,1,0.3c2.4,0.8,4.9,1.5,7.4,2.2c0.2,0,0.4,0.1,0.5,0.1c0,0,0,0,0-0.1
		c2.7-3.7,5.4-7.4,8.1-11.2c16.4-23.4,31.6-47.6,46-72.2c7.1-12.2,18-18.6,29.4-20.3c-0.4-3.3-0.4-6.7-0.1-10l-1.3,1.8l-5-3.6
		l12.5-17.7c1.3-2.2,2.7-4.3,4.4-6.2l13.6-19.3l0,0c0.2-0.3,0.5-0.6,0.8-1l40.1-56.8C771.2,491.8,767.9,476.9,756.5,468.8z"/>
	<path class="st2" d="M719.4,808.7c0,7.3-6.1,13.4-13.6,13.4H494.2c-7.5,0-13.6-6-13.6-13.4v-425c0-7.3,6.1-13.4,13.6-13.4h211.7
		c7.5,0,13.6,6,13.6,13.4L719.4,808.7L719.4,808.7z"/>
	<polygon class="st3" points="697.7,420.2 692,420.2 681,420.2 668.6,420.2 658.2,420.2 657.5,420.2 643.6,420.2 608.6,420.2 
		596.4,420.2 584,420.2 572.4,420.2 554.9,420.2 544.1,420.2 509.9,420.2 508.6,420.2 497.8,420.2 491.5,420.2 491.5,468.4 
		491.5,468.4 491.5,481.4 491.5,481.4 491.5,517.2 491.5,517.2 491.5,560.5 491.5,560.5 491.5,571.3 491.5,571.3 491.5,678.8 
		491.5,678.8 491.5,688.6 491.5,688.6 491.5,738.3 491.5,738.3 491.5,751.3 491.5,751.3 491.5,783.6 492.3,783.6 503.5,783.6 
		528.3,783.6 542.5,783.6 542.5,783.6 544.1,783.6 553.2,783.6 554.9,783.6 565.6,783.6 567.2,783.6 576.7,783.6 609.8,783.6 
		610.3,783.6 622.1,783.6 651.5,783.6 663.5,783.6 666.2,783.6 680.6,783.6 708.5,783.6 708.5,754 708.5,734.1 708.5,729.4 
		708.5,723.4 708.5,711.7 708.5,706.6 708.5,693.4 708.5,571.2 708.5,560.5 708.5,532.2 708.5,517.2 708.5,453.1 708.5,441.1 
		708.5,420.2 	"/>
	<polygon class="st4" points="491.5,414.8 491.5,415 491.5,415 491.5,417.3 491.5,420 491.5,420 491.5,420.7 491.5,420.7 
		491.5,427.4 491.5,427.4 491.5,428 491.5,428 491.5,431.2 491.5,431.2 491.5,432 491.5,432 491.5,434.2 491.5,434.6 708.5,434.6 
		708.5,414.8 	"/>
	<g>
		<rect x="384.8" y="906.2" class="st0" width="270.6" height="293.8"/>
		<path class="st5" d="M603.7,950.6c6.8,0.4,12.7-4.8,13-11.6c0.4-6.8-4.8-12.6-11.6-13s-12.7,4.8-13,11.6
			C591.7,944.4,596.9,950.2,603.7,950.6z"/>
		<rect x="368.2" y="967.6" class="st2" width="298.7" height="232.4"/>
	</g>
	<circle class="st6" cx="602.6" cy="803.5" r="12"/>
	<rect x="506" y="420.3" class="st2" width="61" height="6.7"/>
	<rect x="585.7" y="420.3" class="st2" width="28.6" height="6.7"/>
	<path class="st1" d="M748.5,705.8c2.7,10.2-3.1,20.6-13,23.2l-45.3,12c-9.9,2.6-20.1-3.6-22.8-13.8l0,0c-2.7-10.2,3.1-20.6,13-23.2
		l45.3-12C735.6,689.4,745.8,695.6,748.5,705.8L748.5,705.8z"/>
	<path class="st1" d="M562.8,829.2c0.8-3.4,1.6-6.8,2.1-10.1c-0.6-1.8,1.3-37.9-40.8-67.4c-19.5-13.6-42.4-10.6-53-9.6v87.1H562.8z"
		/>
	<g>
		<g>
			<polygon class="st7" points="600,497.6 677.9,561.1 599.7,628.2 522.1,561.1 			"/>
			<rect x="532.6" y="511.8" class="st8" width="134.3" height="7.2"/>
			<rect x="532.6" y="519" class="st9" width="134.3" height="129.4">
					<animate
	      attributeName="opacity"
	      dur="1s"
	      values="0.7;1;0.7"
	      repeatCount="indefinite" />  
	  </rect>
			<g>
				<rect x="544.2" y="554.8" class="st10" width="50.3" height="3.1"/>
				<rect x="544.2" y="567.3" class="st10" width="111.2" height="3.1"/>
				<rect x="544.2" y="574.2" class="st10" width="111.2" height="3.1"/>
				<rect x="544.2" y="581.1" class="st10" width="111.2" height="3.1"/>
				<rect x="544.2" y="588.1" class="st10" width="111.2" height="3.1"/>
			</g>
			<g>
				<rect x="544.2" y="595" class="st10" width="111.2" height="3.1"/>
				<rect x="544.2" y="602" class="st10" width="111.2" height="3.1"/>
				<rect x="544.2" y="608.9" class="st10" width="111.2" height="3.1"/>
				<rect x="544.2" y="615.9" class="st10" width="111.2" height="3.1"/>
			</g>
			<path class="st11" d="M677.9,561.1c0,0,0,3.2,0,8.5c0,17.1,0,56.2,0,79v9c0,4.7-3.8,8.5-8.5,8.5h-9.6c-33.6,0-104.8,0-129.2,0
				C525.3,666.1,677.9,561.1,677.9,561.1z">
					<animate
	      attributeName="opacity"
	      dur="1s"
	      values="0.8;1;0.8"
	      repeatCount="indefinite" />  
	  </path>
			<path class="st12" d="M522.1,561.1c0,0,0,3.2,0,8.5c0,17.1,0,56.2,0,79v9c0,4.7,3.8,8.5,8.5,8.5h9.6c33.6,0,104.8,0,129.2,0
				C674.7,666.1,522.1,561.1,522.1,561.1z">
					<animate
	      attributeName="opacity"
	      dur="1s"
	      values="0.8;1;0.8"
	      repeatCount="indefinite" />  
	  </path>
			<g>
		<animate
	      attributeName="opacity"
	      dur="2s"
	      values="0.5;1;0.5"
	      repeatCount="indefinite" />  
				<path class="st13" d="M564.9,527.3c0.3,0.1,0.5,0.2,0.6,0.4c0.2,0.2,0.2,0.5,0.2,0.7v12.3c0,0.3-0.1,0.6-0.4,0.9
					c-0.2,0.2-0.5,0.4-0.9,0.4s-0.6-0.1-0.9-0.4c-0.2-0.2-0.4-0.5-0.4-0.9v-8l-3.9,6.3l0,0l0,0l0,0l0,0v0.1l0,0c0,0,0,0-0.1,0.1l0,0
					l0,0c0,0,0,0-0.1,0.1l0,0c0,0,0,0-0.1,0l0,0l0,0l0,0c0,0,0,0-0.1,0l0,0c0,0,0,0-0.1,0c-0.2,0.1-0.3,0.1-0.5,0.1l0,0l0,0
					c-0.1,0-0.2,0-0.3-0.1l0,0l0,0h-0.1l0,0h-0.1l0,0l0,0l0,0c0,0-0.1,0-0.1-0.1l0,0c0,0,0,0-0.1-0.1l0,0l0,0c0,0,0,0-0.1-0.1l0,0
					c0,0,0,0-0.1-0.1l0,0l0,0l0,0l0,0l-3.9-6.3v8c0,0.3-0.1,0.6-0.4,0.9c-0.2,0.2-0.5,0.4-0.9,0.4c-0.3,0-0.6-0.1-0.9-0.4
					c-0.2-0.2-0.4-0.5-0.4-0.9v-12.3c0-0.3,0.1-0.5,0.2-0.7c0.2-0.2,0.4-0.4,0.7-0.4c0.3-0.1,0.5-0.1,0.8,0s0.5,0.3,0.6,0.5l5.1,8.3
					l5.1-8.3c0.1-0.2,0.3-0.4,0.6-0.5s0.4-0.1,0.4-0.1S564.6,527.2,564.9,527.3z"/>
				<path class="st13" d="M578.7,539.5c0.3,0,0.6,0.1,0.9,0.4c0.2,0.2,0.4,0.5,0.4,0.9s-0.1,0.6-0.4,0.9c-0.2,0.2-0.5,0.4-0.9,0.4
					h-7.5c-0.3,0-0.6-0.1-0.9-0.4c-0.2-0.2-0.4-0.5-0.4-0.9v-12.3c0-0.3,0.1-0.6,0.4-0.9c0.2-0.2,0.5-0.4,0.9-0.4l0,0h7.5
					c0.3,0,0.6,0.1,0.9,0.4c0.2,0.2,0.4,0.5,0.4,0.9s-0.1,0.6-0.4,0.9c-0.2,0.2-0.5,0.4-0.9,0.4l0,0h-6.3v3.7h4.5
					c0.3,0,0.6,0.1,0.9,0.3c0.2,0.2,0.4,0.5,0.4,0.9s-0.1,0.6-0.4,0.9c-0.2,0.2-0.5,0.3-0.9,0.3h-4.5v3.7h6.3V539.5z"/>
				<path class="st13" d="M592.4,537.6c-0.1,1.2-0.5,2.3-1.5,3.1c-0.9,0.8-2.1,1.3-3.4,1.3c-1.1,0-2.1-0.2-3-0.7
					c-1.1-0.6-1.8-1.4-2-2.5c-0.1-0.3,0-0.6,0.1-0.9c0.2-0.3,0.4-0.5,0.7-0.6s0.6,0,0.9,0.1c0.3,0.2,0.5,0.4,0.6,0.7
					c0.1,0.5,0.5,0.8,1,1.1c0.5,0.2,1.1,0.3,1.7,0.3c0.6,0,1.2-0.2,1.7-0.6c0.5-0.4,0.7-0.9,0.7-1.5c0-0.4-0.1-0.7-0.4-1
					c-0.4-0.5-1.1-0.7-2.2-0.7l0,0l0,0l0,0c-1.7,0-3-0.5-3.9-1.4c-0.7-0.8-1.1-1.7-1-2.7c0.1-1.2,0.5-2.3,1.5-3.1s2.1-1.3,3.4-1.3
					c1.1,0,2.1,0.2,3,0.7c1.1,0.6,1.8,1.4,2,2.5c0.1,0.3,0,0.6-0.1,0.9c-0.2,0.3-0.4,0.5-0.7,0.6s-0.6,0-0.9-0.1
					c-0.3-0.2-0.5-0.4-0.6-0.7c-0.1-0.5-0.5-0.8-1-1.1c-0.5-0.2-1.1-0.3-1.7-0.3c-0.6,0-1.2,0.2-1.7,0.6c-0.5,0.4-0.7,0.9-0.7,1.5
					c0,0.4,0.1,0.7,0.4,1c0.4,0.4,1.1,0.7,2.2,0.7h0.1c1.7,0,3,0.5,3.9,1.5C592.1,535.6,592.5,536.5,592.4,537.6z"/>
				<path class="st13" d="M605.6,537.6c-0.1,1.2-0.5,2.3-1.5,3.1c-0.9,0.8-2.1,1.3-3.4,1.3c-1.1,0-2.1-0.2-3-0.7
					c-1.1-0.6-1.8-1.4-2-2.5c-0.1-0.3,0-0.6,0.1-0.9c0.2-0.3,0.4-0.5,0.7-0.6s0.6,0,0.9,0.1c0.3,0.2,0.5,0.4,0.6,0.7
					c0.1,0.5,0.5,0.8,1,1.1c0.5,0.2,1.1,0.3,1.7,0.3c0.6,0,1.2-0.2,1.7-0.6c0.5-0.4,0.7-0.9,0.7-1.5c0-0.4-0.1-0.7-0.4-1
					c-0.4-0.5-1.1-0.7-2.2-0.7l0,0l0,0l0,0c-1.7,0-3-0.5-3.9-1.4c-0.7-0.8-1.1-1.7-1-2.7c0.1-1.2,0.5-2.3,1.5-3.1
					c0.9-0.8,2.1-1.3,3.4-1.3c1.1,0,2.1,0.2,3,0.7c1.1,0.6,1.8,1.4,2,2.5c0.1,0.3,0,0.6-0.1,0.9c-0.2,0.3-0.4,0.5-0.7,0.6
					s-0.6,0-0.9-0.1c-0.3-0.2-0.5-0.4-0.6-0.7c-0.1-0.5-0.5-0.8-1-1.1c-0.5-0.2-1.1-0.3-1.7-0.3c-0.6,0-1.2,0.2-1.7,0.6
					c-0.5,0.4-0.7,0.9-0.7,1.5c0,0.4,0.1,0.7,0.4,1c0.4,0.4,1.1,0.7,2.2,0.7h0.1c1.7,0,3,0.5,3.9,1.5
					C605.3,535.6,605.6,536.5,605.6,537.6z"/>
				<path class="st13" d="M609.2,541.9c-0.3-0.1-0.5-0.3-0.7-0.7c-0.1-0.3-0.1-0.6,0-0.9l1.3-3.1l0,0l3.8-9.1c0,0,0-0.1,0.1-0.1
					v-0.1c0,0,0,0,0-0.1c0,0,0,0,0-0.1l0,0l0,0c0,0,0,0,0-0.1l0,0c0,0,0,0,0.1,0l0,0c0,0,0,0,0.1,0l0,0h0.1c0,0,0,0,0.1,0l0,0l0,0
					h0.1c0,0,0,0,0.1,0l0,0c0,0,0,0,0.1,0h0.1c0,0,0,0,0.1,0c0,0,0,0,0.1,0c0,0,0,0,0.1,0h0.1h0.1h0.1c0,0,0,0,0.1,0c0,0,0.1,0,0,0
					c0.1,0,0.2,0.1,0.2,0.1l0,0h0.1l0,0c0,0,0,0,0.1,0l0,0c0,0,0,0,0.1,0l0,0c0,0,0,0,0,0.1l0,0c0,0,0,0,0,0.1s0,0,0,0.1
					c0,0,0,0,0,0.1c0,0,0,0.1,0.1,0.1l3.8,9.1l0,0l1.3,3.1c0.1,0.3,0.1,0.6,0,0.9c-0.1,0.3-0.4,0.5-0.7,0.7
					c-0.2,0.1-0.3,0.1-0.5,0.1c-0.5,0-0.9-0.2-1.1-0.7l-1-2.4h-6l-1,2.4c-0.2,0.5-0.6,0.7-1.1,0.7c-0.2,0-0.2,0-0.2,0
					S609.4,541.9,609.2,541.9z M616.8,536.4l-2-4.8l-2,4.8H616.8z"/>
				<path class="st13" d="M630.6,541.9c-2,0-3.8-0.7-5.2-2.2c-1.4-1.4-2.2-3.2-2.2-5.2s0.7-3.7,2.2-5.2c1.5-1.4,3.2-2.2,5.2-2.2
					c1.7,0,3.2,0.5,4.5,1.5c0.3,0.2,0.4,0.5,0.5,0.8c0,0.3,0,0.6-0.2,0.9s-0.5,0.4-0.8,0.5c-0.3,0-0.6,0-0.9-0.2c-0.9-0.7-1.9-1-3-1
					c-1.4,0-2.5,0.5-3.5,1.4c-1,1-1.4,2.1-1.4,3.5s0.5,2.5,1.4,3.5c1,1,2.1,1.4,3.5,1.4c1.3,0,2.4-0.4,3.3-1.3c0,0,0,0,0.1-0.1v-2.7
					h-4c-0.3,0-0.6-0.1-0.9-0.3c-0.2-0.2-0.4-0.5-0.4-0.9s0.1-0.6,0.4-0.9c0.2-0.2,0.5-0.4,0.9-0.4h5.3c0.3,0,0.6,0.1,0.9,0.4
					c0.2,0.2,0.4,0.5,0.4,0.9v6.5c0,0.3-0.1,0.6-0.4,0.9c-0.2,0.2-0.5,0.4-0.9,0.4l0,0c-0.3,0-0.5-0.1-0.7-0.3s-0.4-0.4-0.4-0.6
					C632.9,541.6,631.8,541.9,630.6,541.9z"/>
				<path class="st13" d="M649,539.5c0.3,0,0.6,0.1,0.9,0.4c0.2,0.2,0.4,0.5,0.4,0.9s-0.1,0.6-0.4,0.9c-0.2,0.2-0.5,0.4-0.9,0.4
					h-7.5c-0.3,0-0.6-0.1-0.9-0.4c-0.2-0.2-0.4-0.5-0.4-0.9v-12.3c0-0.3,0.1-0.6,0.4-0.9c0.2-0.2,0.5-0.4,0.9-0.4l0,0h7.5
					c0.3,0,0.6,0.1,0.9,0.4c0.2,0.2,0.4,0.5,0.4,0.9s-0.1,0.6-0.4,0.9c-0.2,0.2-0.5,0.4-0.9,0.4l0,0h-6.3v3.7h4.5
					c0.3,0,0.6,0.1,0.9,0.3c0.2,0.2,0.4,0.5,0.4,0.9s-0.1,0.6-0.4,0.9c-0.2,0.2-0.5,0.3-0.9,0.3h-4.5v3.7h6.3V539.5z"/>
			</g>
		</g>
	</g>
	<path class="st1" d="M743.6,601.2c5.5,11.6,1.5,24.9-8.8,29.8l-47.4,22.3c-10.3,4.9-23.1-0.6-28.5-12.1l0,0
		c-5.5-11.6-1.5-24.9,8.8-29.8l47.4-22.3C725.4,584.2,738.2,589.7,743.6,601.2L743.6,601.2z"/>
	<path class="st1" d="M747.5,661c2.6,10.6-3.3,21.2-13.2,23.7l-45.5,11.2c-9.9,2.4-20.1-4.2-22.7-14.8l0,0
		c-2.6-10.6,3.3-21.2,13.2-23.7l45.5-11.2C734.8,643.7,744.9,650.4,747.5,661L747.5,661z"/>
</g>
<path class="st14" d="M548.4,542.4c12.7-16.7,13.7-43.9,10.7-62.7c-4.3-26.7-15.7-41.1-42-51c-29.9-11.2-58.7-18.2-90.1-23.7
	c-23.6-4.1-49.5-3.6-70.6,10c-11.1,7.2-18.1,18-21.6,30.7c-1.9,6.9-6.7,38.3-7.6,47c-3.2,28.6,5.9,45.9,33.7,54
	c29.1,8.5,56.8,11.9,86.9,13.5c23.5,1.2,52.7,4.6,76.5-2.5c11.5,9.9,30,25.4,32.2,24.7c3.2-1-7.9-40-7.9-40H548.4z"/>
<g>
	<path class="st15" d="M414.8,446.4c0.5,2.6,0.7,5.3,0.7,8c0,1.4-0.1,2.9-0.3,4.4c-0.2,1.5-0.5,2.8-0.8,4c-0.3,1.1-0.5,1.8-0.7,2.2
		c-0.2,0.4-0.4,0.8-0.6,1.2c-0.6,0.9-1.3,1.6-2.2,2c-0.2,0.1-0.4,0.2-0.6,0.2c-0.8,0.4-1.5,0.6-2,0.6c-0.2,0-0.4,0-0.7-0.1
		c-0.1,0-0.1-0.1-0.2-0.1c-0.1-0.1-0.1-0.1-0.1-0.2l-0.2-25.8c0-0.1,0.1-0.2,0.2-0.3c0-0.2,0.1-0.3,0.2-0.3c0.6-0.2,1.3-0.3,2-0.3
		c0.8,0,1.5,0.1,2.3,0.4c0.7,0.3,1.3,0.7,1.8,1.2C414.2,444.3,414.6,445.2,414.8,446.4z M413.3,464.1c1-2.9,1.5-6.1,1.5-9.7
		c0-2.5-0.2-5.2-0.7-7.8c-0.1-0.6-0.3-1.1-0.5-1.5s-0.5-0.8-0.8-1.1c-0.4-0.4-0.9-0.7-1.5-0.9c-0.6-0.2-1.2-0.3-1.8-0.3
		c-0.6,0-1.1,0.1-1.7,0.3l0.1,21.3c0,1,0,2.4,0,4.2c0.1,0,0.2,0,0.3,0c0.2,0,0.4,0,0.7-0.1c0.3-0.1,0.6-0.2,0.9-0.4l0.7-0.3
		c0.8-0.3,1.4-0.9,1.9-1.8C412.8,465.4,413.1,464.8,413.3,464.1z"/>
	<path class="st15" d="M430.6,448.1v2.3v4.8c0,1.2,0,2,0,2.4l-0.1,3.4v1.3c0,1.3-0.1,2.4-0.2,3.3s-0.3,1.6-0.7,2.2
		c-0.5,0.7-1,1.2-1.7,1.5s-1.4,0.4-2.2,0.4c-0.7,0-1.4-0.2-2-0.5c-0.7-0.3-1.2-0.9-1.5-1.6c-0.5-0.9-0.7-1.8-0.8-2.9
		c-0.3-2.3-0.4-5.2-0.4-8.5c0-1.8,0-3.9,0.1-6.4V449c0-1.1,0.1-1.9,0.2-2.5s0.2-1.2,0.5-1.8c0.2-0.6,0.6-1.2,1.2-1.6
		c0.5-0.5,1.1-0.8,1.6-0.9s1-0.2,1.5-0.2c1.3,0,2.3,0.4,2.9,1.1c0.6,0.6,1,1.3,1.3,2.2C430.5,446,430.6,447,430.6,448.1z
		 M428.2,468.3c0.6-0.4,1-0.9,1.2-1.5s0.3-1.5,0.3-2.5v-0.4c0-1.7,0-3.8,0.1-6.3c0-0.4,0-1.2,0-2.6v-5.2v-1.7c0-1.3-0.1-2.3-0.4-3.2
		c-0.3-0.8-0.8-1.5-1.5-2c-0.3-0.2-0.8-0.3-1.5-0.4h-0.9c-0.4,0-0.7,0.1-1,0.2c-0.6,0.2-1.1,0.5-1.5,1.1c-0.4,0.5-0.7,1.1-0.9,1.8
		c-0.2,0.7-0.3,1.7-0.3,2.8v0.7c0,0.3,0,0.5,0,0.7l-0.1,3.3c0,3.3,0,5.8,0.1,7.7c0.1,1.9,0.1,3.3,0.3,4.3c0.2,1.2,0.6,2.1,1.2,2.8
		c0.6,0.7,1.4,1.1,2.4,1.1C426.7,469,427.6,468.7,428.2,468.3z"/>
	<path class="st15" d="M446,447.6l0.1,3.1c0.1,1.4,0.1,2.7,0.1,4.1c0,1.7,0,3.5,0.1,5.4v1c0.1,2.6,0.2,4.7,0.2,6.3c0,1,0,1.7,0,2
		c0,0.1,0,0.2-0.1,0.3c-0.1,0.1-0.1,0.1-0.2,0.1c-0.2,0-0.3-0.1-0.4-0.2l-1.2-3.3l-5.2-14.5L437,445l0.1,2
		c0.3,6.5,0.4,11.9,0.4,16.2c0,2.1,0,4.2-0.1,6.2c0,0.2-0.1,0.3-0.4,0.3s-0.4-0.1-0.4-0.3c0.1-2.1,0.1-4.2,0.1-6.3
		c0-4.6-0.2-10.8-0.5-18.4l-0.1-2l0,0c0-0.2,0.1-0.3,0.3-0.3c0.2,0,0.3,0.1,0.4,0.2l1.2,3.3l5.2,14.5l2.5,7.2c0-1.4-0.1-3.5-0.2-6.4
		v-0.9l-0.1-4.2l-0.1-4.1l-0.1-2.4c0-0.3,0-0.6,0-0.7c0-2-0.1-4-0.1-6.2c0-0.2,0.1-0.4,0.4-0.4s0.4,0.1,0.4,0.4v1.4L446,447.6z"/>
	<path class="st15" d="M458.6,442.1c0.3,3.9,0.8,7.9,1.5,12.1s1.6,9,2.7,14.5c0,0,0,0.1-0.2,0.2c-0.1,0.1-0.3,0.1-0.4,0.1
		s-0.2-0.1-0.2-0.2c-0.8-4-1.5-8.2-2.3-12.7h-3.8c-0.6,3-1.6,7.1-3.1,12.3l-0.2,0.7c0,0.1-0.1,0.1-0.2,0.2s-0.2,0.1-0.2,0.1
		c-0.1,0-0.2,0-0.2-0.1c-0.1,0-0.1-0.1-0.1-0.2s0-0.1,0-0.2l2.3-8.6c0.4-1.7,0.8-3.8,1.3-6.4c0.3-2,0.7-3.7,1-5l0.9-4.2l0.2-0.8
		c0.2-0.8,0.3-1.4,0.3-1.9c0-0.2,0.1-0.3,0.3-0.3C458.4,441.7,458.5,441.8,458.6,442.1z M455.9,455.4h3.6l-0.2-1.6
		c-0.6-3.9-1-6.9-1.2-9.1c0,0.1,0,0.2,0,0.3c0,0.2-0.1,0.3-0.1,0.3l-0.6,2.9l-0.2,0.9c-0.5,2.5-0.9,4-1,4.7
		C456.1,454.5,456,455.1,455.9,455.4z"/>
	<path class="st15" d="M478.4,442.1c0.2,0,0.4,0.1,0.4,0.4c0,0.2-0.1,0.4-0.4,0.4l-2.7-0.1h-1.9v0.2c0,0.1,0,0.2,0,0.5v1.9l0.1,10
		v10v4c0,0.2-0.1,0.4-0.4,0.4s-0.4-0.1-0.4-0.4c0-1,0-3.1,0-6.4l-0.1-13.7v-4.9v-0.9c0-0.3,0-0.5,0.1-0.7c-1.7,0-3.1,0-4.5-0.1
		c-0.2,0-0.4-0.1-0.4-0.4s0.1-0.4,0.3-0.4h0.1l3.3,0.1h3.8L478.4,442.1z"/>
	<path class="st15" d="M492,441.9c0.2,0,0.4,0.1,0.4,0.4c0,0.2-0.1,0.3-0.4,0.3l-3.7-0.1c-0.1,0-0.5,0-0.9,0c-0.5,0-0.8,0-1,0H486
		c-0.5,0-0.8,0.1-0.9,0.3c0,0.1-0.1,0.2-0.1,0.4v0.2c0,1,0.1,2,0.1,3.2L485,452c0,1.8,0,3,0,3.5h0.1c0.8-0.1,1.8-0.1,2.9-0.1
		s1.8,0,2.1,0l0,0c0.1,0,0.2,0,0.2,0.1c0.1,0.1,0.1,0.2,0.1,0.2c0,0.2-0.1,0.4-0.4,0.4c-0.8,0.1-1.8,0.1-2.8,0.1c-1.1,0-1.8,0-2.1,0
		H485c0,0.6,0,2.1,0,4.3v8.2c1.4-0.2,2.9-0.3,4.6-0.3c0.8,0,1.3,0,1.5,0s0.3,0.2,0.3,0.4c0,0.2-0.1,0.3-0.3,0.3H491
		c-0.2,0-0.8,0-1.6,0c-1.7,0-3.3,0.1-4.8,0.3h-0.1c-0.1,0-0.2,0-0.3-0.1s-0.1-0.1-0.1-0.2v-4.2c0-0.6,0-2,0-4.2c0-1.9,0-3.1,0-3.6
		v-3.7v-0.9v-2.8c0-0.4,0-1.3,0-2.8V446c0-1,0-1.6,0-1.9L484,443c0-0.5,0.1-0.8,0.3-1c0.2-0.2,0.6-0.3,1.1-0.3l1.6-0.1
		c0.6,0,1.4,0,2.6,0.1C490.8,441.8,491.5,441.9,492,441.9z"/>
	<path class="st15" d="M388.7,475.6c0.2,0,0.3,0.1,0.3,0.3c0,0.2-0.1,0.3-0.3,0.3h-2.1h-1.5v0.1c0,0,0,0.2,0,0.4v1.5v7.8v7.7v3.1
		c0,0.2-0.1,0.3-0.3,0.3c-0.2,0-0.3-0.1-0.3-0.3c0-0.7,0-2.4,0-5l-0.1-10.6v-3.8v-0.7c0-0.2,0-0.4,0-0.6c-1.3,0-2.5,0-3.5,0
		c-0.2,0-0.3-0.1-0.3-0.3s0.1-0.3,0.2-0.3l0,0h2.6h3L388.7,475.6z"/>
	<path class="st15" d="M403.7,475.6L403.7,475.6c0-0.2,0.1-0.3,0.3-0.3c0.2,0,0.3,0.1,0.3,0.3c0.1,2.4,0.2,6,0.3,10.8
		c0,3.6,0.1,6.9,0.2,9.7c0,0.2-0.1,0.3-0.3,0.3s-0.3-0.1-0.3-0.3c0-0.6-0.1-1.6-0.1-2.8c0-1.3-0.1-2.4-0.1-3.3v-1.2v-2.5
		c-1.1,0.1-2.3,0.2-3.7,0.2c-0.8,0-1.4,0-1.6,0l0,0c0,3.6,0,6.9-0.1,10c0,0.2-0.1,0.3-0.3,0.3c-0.2,0-0.3-0.1-0.3-0.3
		c0.1-2.9,0.1-6.5,0.1-10.7c0-1.6,0-2.6,0-3c-0.1-2.8-0.1-5.2-0.1-7.1c0-0.2,0.1-0.3,0.3-0.3s0.3,0.1,0.3,0.3c0,2.1,0,3.4,0,4
		c0,2.1,0.1,4.2,0.1,6.3l0,0c0.2,0,0.8,0,1.6,0c1.4,0,2.6-0.1,3.7-0.2C403.9,481.2,403.8,477.8,403.7,475.6z"/>
	<path class="st15" d="M419.9,475.5c0.2,0,0.3,0.1,0.3,0.3c0,0.2-0.1,0.3-0.3,0.3L417,476c-0.1,0-0.4,0-0.7,0c-0.4,0-0.6,0-0.8,0
		h-0.3c-0.4,0-0.6,0.1-0.7,0.2c0,0.1,0,0.2,0,0.3v0.2c0,0.7,0,1.6,0,2.4v4.2c0,1.4,0,2.3,0,2.7l0,0c0.7,0,1.4-0.1,2.2-0.1
		c0.9,0,1.4,0,1.6,0l0,0c0.1,0,0.1,0,0.2,0.1c0,0.1,0.1,0.1,0.1,0.2c0,0.2-0.1,0.3-0.3,0.3c-0.6,0-1.4,0.1-2.2,0.1
		c-0.9,0-1.4,0-1.7,0l0,0c0,0.5,0,1.6,0,3.4v6.4c1.1-0.2,2.3-0.2,3.6-0.2c0.6,0,1,0,1.2,0s0.3,0.1,0.3,0.3c0,0.2-0.1,0.3-0.2,0.3
		l0,0c-0.2,0-0.6,0-1.2,0c-1.3,0-2.6,0.1-3.8,0.3l0,0c-0.1,0-0.2,0-0.2-0.1c-0.1,0-0.1-0.1-0.1-0.2v-3.2c0-0.5,0-1.6,0-3.2
		c0-1.5,0-2.4,0-2.8v-2.8v-0.7v-2.2c0-0.3,0-1,0-2.2V479c0-0.8,0-1.3,0-1.5l-0.1-0.9c0-0.4,0.1-0.6,0.3-0.8c0.2-0.1,0.5-0.2,0.9-0.3
		h1.3c0.4,0,1.1,0,2,0.1C419,475.5,419.5,475.5,419.9,475.5z"/>
	<path class="st15" d="M444.7,476.9c-0.1,0.3-0.3,0.6-0.3,0.9c-0.1,0.3-0.1,0.8-0.2,1.4c-0.1,1.6-0.2,3.5-0.2,5.7
		c0,2.6,0.1,5,0.2,7.2v0.6c0,0.5,0,0.9,0.1,1.2c0,0.3,0.1,0.6,0.3,0.9c0.2,0.4,0.5,0.7,0.9,1c0.4,0.2,0.9,0.4,1.4,0.4
		c0.4,0,0.8-0.1,1.1-0.3c0.3-0.2,0.6-0.4,0.8-0.7c0.3-0.7,0.5-1.5,0.5-2.6v-1.1c0-0.1,0-0.5,0-0.9l0.1-3.1l-1.6,0.1l0,0
		c-0.1,0-0.1,0-0.2-0.1c0-0.1-0.1-0.1-0.1-0.2c0-0.2,0.1-0.3,0.3-0.3c1-0.1,1.6-0.1,1.9-0.1c0.2,0,0.3,0.1,0.3,0.3l0,0
		c0,0,0,0,0,0.1c-0.1,1.9-0.1,3.6-0.1,4.9c0,1.1-0.1,2-0.3,2.6c-0.2,0.6-0.5,1.1-1,1.5c-0.4,0.3-0.9,0.4-1.5,0.4
		c-0.8,0-1.5-0.2-2.1-0.6s-0.9-1-1.1-1.8c-0.1-0.6-0.2-1.7-0.3-3.3s-0.1-3-0.2-4.4v-1.3c0-1.3,0-2.7,0.1-4v-0.7c0-1,0.1-1.8,0.2-2.4
		s0.3-1.1,0.5-1.5s0.5-0.6,0.8-0.9s0.7-0.4,1.1-0.4s0.7,0,0.8,0c0.6,0,1.1,0.1,1.5,0.3s0.7,0.4,1,0.8s0.4,0.8,0.5,1.2v0.1
		c0,0.1,0,0.1-0.1,0.2s-0.1,0.1-0.2,0.1c0,0-0.1,0-0.1-0.1c0,0-0.1-0.1-0.1-0.2c-0.1-0.6-0.4-1-0.8-1.3s-0.8-0.5-1.3-0.5h-0.7
		C445.8,475.8,445.1,476.2,444.7,476.9z"/>
	<path class="st15" d="M459.8,475.1c0.3,0,0.4,0.1,0.4,0.4c0,0.1,0,0.2-0.1,0.3c-0.1,0.1-0.2,0.1-0.3,0.1c-0.1,0-0.2,0-0.3-0.1
		c-0.1-0.1-0.1-0.2-0.1-0.3c0-0.1,0-0.2,0.1-0.3S459.7,475.1,459.8,475.1z M460.1,477.2v3.7v6.4c0,3.2,0,6.2-0.1,9
		c0,0.2-0.1,0.3-0.3,0.3c-0.1,0-0.1,0-0.2-0.1c0,0-0.1-0.1-0.1-0.2c0.1-3.3,0.1-6.8,0.1-10.5c0-1.1,0-1.7,0-2
		c-0.1-2.6-0.1-4.8-0.1-6.6c0-0.1,0-0.1,0.1-0.2c0.1,0,0.1-0.1,0.2-0.1C460,477,460.1,477.1,460.1,477.2z"/>
	<path class="st15" d="M475.7,475.5c0.2,0,0.3,0.1,0.3,0.3c0,0.2-0.1,0.3-0.3,0.3l-1.5-0.1h-1.5h-0.5c-0.2,0-0.3,0-0.4,0
		c-0.2,0-0.4,0-0.6,0h-0.3c-0.4,0-0.7,0.1-0.8,0.3c0,0.1,0,0.2,0,0.3v0.2c0,0.9,0.1,1.8,0.1,2.7v3.9v2.7c0,0,0,0,0.1,0
		c0.6,0,1.2,0,1.9,0h1.9l0,0c0.1,0,0.1,0,0.2,0.1c0,0.1,0.1,0.1,0.1,0.2c0,0.2-0.1,0.3-0.3,0.3h-1.9c-0.7,0-1.4,0-1.9,0.1h-0.1v3.3
		v6.6c0,0.2-0.1,0.3-0.3,0.3s-0.3-0.1-0.3-0.3v-6.5c0-1.6,0-2.7,0-3.1V484v-2.5V479v-1.5l-0.1-0.9c0-0.4,0.1-0.6,0.3-0.8
		c0.2-0.1,0.5-0.2,0.9-0.2h1.4c0.7,0,1.4,0,2,0.1L475.7,475.5z"/>
	<path class="st15" d="M493,475.6c0.2,0,0.3,0.1,0.3,0.3c0,0.2-0.1,0.3-0.3,0.3h-2.1h-1.5v0.1c0,0,0,0.2,0,0.4v1.5v7.8v7.7v3.1
		c0,0.2-0.1,0.3-0.3,0.3c-0.2,0-0.3-0.1-0.3-0.3c0-0.7,0-2.4,0-5l-0.1-10.6v-3.8v-0.7c0-0.2,0-0.4,0-0.6c-1.3,0-2.5,0-3.5,0
		c-0.2,0-0.3-0.1-0.3-0.3s0.1-0.3,0.2-0.3l0,0h2.6h3L493,475.6z"/>
	<path class="st15" d="M390.3,513.4v2.3v4.6c0,1.2,0,2,0,2.3l-0.1,3.3v1.3c0,1.3-0.1,2.4-0.1,3.2c-0.1,0.8-0.3,1.5-0.7,2.1
		c-0.4,0.7-1,1.2-1.7,1.4c-0.7,0.3-1.4,0.4-2.1,0.4s-1.3-0.2-1.9-0.5s-1.1-0.9-1.5-1.6c-0.4-0.8-0.7-1.8-0.8-2.8
		c-0.3-2.3-0.4-5-0.4-8.3c0-1.7,0-3.8,0.1-6.2v-0.8c0-1,0.1-1.9,0.1-2.5c0.1-0.6,0.2-1.2,0.5-1.8c0.2-0.6,0.6-1.1,1.1-1.6
		s1-0.7,1.6-0.9c0.4-0.1,0.9-0.1,1.4-0.1c1.3,0,2.2,0.4,2.8,1c0.6,0.6,1,1.3,1.2,2.1C390.1,511.4,390.3,512.3,390.3,513.4z
		 M387.9,532.9c0.6-0.4,0.9-0.9,1.1-1.5s0.3-1.4,0.3-2.4v-0.4c0-1.7,0-3.7,0.1-6.1c0-0.4,0-1.2,0-2.5v-5v-1.6c0-1.2-0.1-2.2-0.4-3.1
		c-0.3-0.8-0.8-1.4-1.5-1.9c-0.3-0.2-0.8-0.3-1.4-0.4h-0.8c-0.4,0-0.7,0-1,0.1c-0.5,0.2-1,0.5-1.4,1s-0.7,1.1-0.9,1.7
		c-0.2,0.7-0.3,1.6-0.3,2.7v0.7c0,0.3,0,0.5,0,0.6l-0.1,3.1c0,3.2,0,5.6,0.1,7.4c0,1.8,0.1,3.2,0.3,4.2c0.2,1.1,0.6,2,1.1,2.7
		c0.6,0.7,1.3,1,2.3,1C386.5,533.6,387.3,533.4,387.9,532.9z"/>
	<path class="st15" d="M403,507.4c0.2,0,0.3,0.1,0.3,0.4c0,0.2-0.1,0.4-0.3,0.4l-1.8-0.1l-1.8-0.1h-0.6c-0.2,0-0.4,0-0.5,0
		c-0.3,0-0.5,0-0.7,0h-0.3c-0.5,0-0.8,0.1-1,0.3c0,0.1-0.1,0.2-0.1,0.4v0.2c0.1,1.1,0.1,2.2,0.1,3.4l-0.1,4.9v3.4c0,0,0,0,0.1,0
		c0.7,0,1.5-0.1,2.4-0.1l2.4-0.1l0,0c0.1,0,0.2,0,0.2,0.1s0.1,0.1,0.1,0.2c0,0.2-0.1,0.4-0.3,0.4l-2.4,0.1c-0.9,0-1.7,0-2.4,0.1
		h-0.1l0.1,4.2l-0.1,8.3c0,0.2-0.1,0.3-0.4,0.3c-0.2,0-0.4-0.1-0.4-0.3l0.1-8.1c0-2,0-3.3,0-3.9v-3.9l0.1-3.2v-3.1l-0.1-1.8
		l-0.1-1.1c0-0.5,0.1-0.8,0.3-0.9s0.6-0.3,1.1-0.3l1.7-0.1c0.8,0,1.7,0,2.5,0.1L403,507.4z"/>
	<path class="st15" d="M428.5,533.4L428.5,533.4c0.1,0,0.2,0,0.3,0.1c0,0.1,0.1,0.1,0.1,0.2c0,0.2-0.1,0.3-0.3,0.4
		c-0.8,0.1-1.8,0.1-2.8,0.1l-2.8,0.1h-0.6c-0.4,0-0.8-0.1-1.1-0.3c-0.3-0.2-0.4-0.4-0.5-0.7c0-0.3-0.1-0.7-0.1-1.1v-1.4
		c0-1.9,0-4.1-0.1-6.8c-0.1-2.3-0.1-4.3-0.1-5.9c0-3.8,0-7.2-0.1-10.3c0-0.2,0.1-0.3,0.4-0.3c0.2,0,0.4,0.1,0.4,0.3
		c0,0.7,0,2.3,0,4.7c0,1.7,0,2.7,0,3.2c0,2.4,0,4.5,0.1,6.4c0.1,3.3,0.2,6.3,0.2,8.9c0,0.2,0,0.4,0,0.6c0,0.2,0,0.4,0,0.8
		c0,0.6,0.1,1,0.3,1.2c0.1,0.1,0.4,0.1,0.7,0.1c0.1,0,0.3,0,0.8-0.1l0.7-0.1l1.9-0.1C426.7,533.5,427.6,533.4,428.5,533.4z"/>
	<path class="st15" d="M435.2,506.9c0.3,0,0.5,0.2,0.5,0.5c0,0.1,0,0.3-0.1,0.4s-0.2,0.1-0.4,0.1c-0.1,0-0.3,0-0.3-0.1
		s-0.1-0.2-0.1-0.4c0-0.1,0-0.2,0.1-0.3C434.9,506.9,435,506.9,435.2,506.9z M435.5,509.5l0.1,4.6l0.1,8c0,4-0.1,7.8-0.1,11.3
		c0,0.2-0.1,0.3-0.3,0.3c-0.1,0-0.1,0-0.2-0.1s-0.1-0.1-0.1-0.2c0.1-4.1,0.1-8.5,0.1-13.2c0-1.3,0-2.2,0-2.5c-0.1-3.2-0.1-6-0.1-8.2
		c0-0.1,0-0.2,0.1-0.2c0.1-0.1,0.1-0.1,0.2-0.1C435.4,509.2,435.5,509.3,435.5,509.5z"/>
	<path class="st15" d="M449,507.4c0.2,0,0.3,0.1,0.3,0.4c0,0.2-0.1,0.4-0.3,0.4l-1.8-0.1l-1.8-0.1h-0.6c-0.2,0-0.4,0-0.5,0
		c-0.3,0-0.5,0-0.7,0h-0.3c-0.5,0-0.8,0.1-1,0.3c0,0.1-0.1,0.2-0.1,0.4v0.2c0.1,1.1,0.1,2.2,0.1,3.4l-0.1,4.9v3.4c0,0,0,0,0.1,0
		c0.7,0,1.5-0.1,2.4-0.1l2.4-0.1l0,0c0.1,0,0.2,0,0.2,0.1s0.1,0.1,0.1,0.2c0,0.2-0.1,0.4-0.3,0.4l-2.4,0.1c-0.9,0-1.7,0-2.4,0.1
		h-0.1l0.1,4.2l-0.1,8.3c0,0.2-0.1,0.3-0.4,0.3c-0.2,0-0.4-0.1-0.4-0.3l0.1-8.1c0-2,0-3.3,0-3.9v-3.9l0.1-3.2v-3.1l-0.1-1.8
		l-0.1-1.1c0-0.5,0.1-0.8,0.3-0.9s0.6-0.3,1.1-0.3l1.7-0.1c0.8,0,1.7,0,2.5,0.1L449,507.4z"/>
	<path class="st15" d="M462.1,507.4c0.2,0,0.4,0.1,0.4,0.4c0,0.2-0.1,0.3-0.4,0.3l-3.6-0.1c-0.1,0-0.4,0-0.9,0s-0.8,0-0.9,0h-0.4
		c-0.5,0-0.8,0.1-0.9,0.3c0,0.1-0.1,0.2-0.1,0.4v0.2c0,0.9,0.1,1.9,0.1,3.1l-0.1,5.3c0,1.8,0,2.9,0,3.4h0.1c0.8-0.1,1.7-0.1,2.8-0.1
		c1.1,0,1.7,0,2,0l0,0c0.1,0,0.2,0,0.2,0.1c0.1,0.1,0.1,0.1,0.1,0.2c0,0.2-0.1,0.4-0.4,0.4c-0.8,0.1-1.7,0.1-2.7,0.1
		c-1.1,0-1.8,0-2.1,0h-0.1c0,0.6,0,2,0,4.2v7.9c1.3-0.2,2.8-0.3,4.4-0.3c0.8,0,1.3,0,1.5,0s0.3,0.2,0.3,0.4s-0.1,0.3-0.3,0.3H461
		c-0.2,0-0.7,0-1.5,0c-1.6,0-3.2,0.1-4.6,0.3h-0.1c-0.1,0-0.2,0-0.3-0.1c-0.1-0.1-0.1-0.1-0.1-0.2v-4c0-0.6,0-1.9,0-4
		c0-1.8,0-3,0-3.5v-3.5V518v-2.7c0-0.4,0-1.3,0-2.7v-0.9c0-1,0-1.6,0-1.8l-0.1-1.1c0-0.5,0.1-0.8,0.3-0.9s0.6-0.3,1.1-0.3l1.6-0.1
		c0.5,0,1.4,0,2.5,0.1C461,507.3,461.7,507.4,462.1,507.4z"/>
	<path d="M385,440.3v3.2c-1.5,0.1-2.5,0.4-2.8,1s-0.5,1.5-0.5,2.6v0.9h3.3v7.8h-7.9V449c0-2.7,0.3-4.6,1-5.7s1.5-1.9,2.6-2.3
		C381.7,440.6,383.1,440.3,385,440.3z M399.4,440.3v3.2c-1.5,0.1-2.5,0.4-2.8,1s-0.5,1.5-0.5,2.6v0.9h3.3v7.8h-7.9V449
		c0-2.7,0.3-4.6,1-5.7s1.5-1.9,2.6-2.3S397.6,440.4,399.4,440.3z"/>
	<path d="M470.9,519.6v-3.2c1.5-0.1,2.5-0.4,2.8-1s0.5-1.5,0.5-2.6v-0.9h-3.3V504h7.9v6.8c0,2.7-0.3,4.6-1,5.7
		c-0.7,1.1-1.5,1.9-2.6,2.3C474.2,519.2,472.8,519.5,470.9,519.6z M485.4,519.6v-3.2c1.5-0.1,2.5-0.4,2.8-1s0.5-1.5,0.5-2.6v-0.9
		h-3.3V504h7.9v6.8c0,2.7-0.3,4.6-1,5.7c-0.7,1.1-1.5,1.9-2.6,2.3C488.7,519.3,487.2,519.5,485.4,519.6z"/>
</g>
</svg>
