<?xml version="1.0" encoding="utf-8"?>
<!-- Generator: Adobe Illustrator 21.0.0, SVG Export Plug-In . SVG Version: 6.00 Build 0)  -->
<svg version="1.1" id="Layer_1" xmlns="http://www.w3.org/2000/svg" xmlns:xlink="http://www.w3.org/1999/xlink" x="0px" y="0px"
	 viewBox="0 300 1200 900" style="enable-background:new 0 0 1200 1200;" xml:space="preserve">
<style type="text/css">
	.st0{fill:#FFFFFF;}
	.st1{fill:#EDA677;}
	.st2{fill:#1B384C;}
	.st3{fill:#DDDBDB;}
	.st4{fill:#E9E9F0;}
	.st5{fill:#0E2A30;}
	.st6{opacity:0.2;fill:#FFFFFF;enable-background:new    ;}
	.st7{fill:#E74C3C;}
	.st8{fill:#FCFCFC;}
	.st9{opacity:0.1;enable-background:new    ;}
	.st10{fill:#E34E48;}
	.st11{fill:#DB3E3E;}
	.st12{fill:#E4EFF2;}
	.st13{fill:#B2D1D8;}
	.st14{fill:#F7F9F9;}
	.st15{clip-path:url(#SVGID_2_);fill:#FFFFFF;}
</style>
<g>
	<circle fill="none" stroke="#fff" stroke-width="8" stroke-miterlimit="15" stroke-dasharray="14.2472,14.2472" cx="589.7" cy="662.8" r="300" >
      <animateTransform 
         attributeName="transform" 
         attributeType="XML" 
         type="rotate"
         dur="20s" 
         from="0 589.7 662.8"
         to="360 589.7 662.8" 
         repeatCount="indefinite" />
    </circle>
	<circle fill="none" stroke="#fff" stroke-width="6" stroke-miterlimit="10" stroke-dasharray="40,40" cx="589.7" cy="662.8" r="330">
	      <animateTransform 
	         attributeName="transform" 
	         attributeType="XML" 
	         type="rotate"
	         dur="10s" 
	         from="0 589.7 662.8" 
	         to="-360 589.7 662.8" 
	         repeatCount="indefinite" />
	</circle>
	<circle fill="#000" fill-opacity="0.2" cx="589.7" cy="662.8" r="270.1" />
	<path class="st1" d="M676.3,859.2c-11.8-20.2-45-24.6-27.5-37.4c-0.5,0.4,6.7-6,8.4-7.9c0.7-0.8,1.3-1.4,1.7-1.9
		c0.3-0.5,0.6-1,1-1.8c0.7-1.3,3.5-8.5,2.7-5.5c0.7-2.3,1.4-4.7,1.9-7.1c0.2-1.2,0.4-2.1,0.5-2.6c0.1-1.4,0.3-2.8,0.4-4.2
		c0.2-3.8,0.4-7.5,0.4-11.3c0.1-8.3,0-16.6,0-24.8c0-10.9,3.6-19.5,9.3-25.8c-10.2-6.6-21.3-7.5-25.3-1.8l-1.4,2l-6.2,8.9l-0.4,0.5
		l-4.7-3.3l6.2-8.8l6.3-8.9l5.1-7.2c4.2-6-1-16.8-11.6-24.3s-22.6-8.7-26.8-2.8l-5.1,7.2l-6.3,8.9l-6.2,8.8l-4.7-3.3l28.2-40l0,0
		c0.2-0.3,0.5-0.6,0.7-0.9l37.1-52.6c6.8-9.6,3.7-23.5-6.9-31c-10.6-7.5-24.7-5.7-31.5,3.9l-37.1,52.6c-0.2,0.3-0.4,0.6-0.6,1h-0.1
		L502,753.7L480.4,796l-6.1-117c3.3-13.8,5.3-27.2-6.1-35.2s-27.1-5.3-35.2,6.1l-6.7,98c0,0-11.3,26.8-3.4,68.6l18.4,37
		c-90,186-59.6,139.1-72,156.3l170.8,49.5c4.4-17.7,58.9-134.7,58.9-134.7c6.3-2,24.1-7.4,33-12.1c4.3-2.2,11.3-6.7,19.8-17.2
		C667.4,874,680.1,865.8,676.3,859.2z"/>
	<path class="st1" d="M736.6,542.2c-10.6-7.5-24.7-5.7-31.5,3.9L668,598.7c-0.2,0.3-0.4,0.6-0.6,1h-0.1l-81.8,115.9l-0.3-0.2
		c0.1,0.5,0.1,0.9,0.2,1.4c2.8,17.1,4,37,10,53.6c0,0,0,0,0.1,0.1c0.1,0,0.1,0.1,0.2,0.1c0.1-0.7,1.1,0.1,1.6,0.9
		c0.1,0.1,0.2,0.1,0.3,0.2c0.3,0.1,0.6,0.2,1,0.3c2.3,0.7,4.5,1.4,6.8,2c0.2,0,0.3,0.1,0.5,0.1c0,0,0,0,0-0.1
		c2.5-3.4,5-6.9,7.5-10.4c15.2-21.7,29.3-44.1,42.6-67c6.6-11.3,16.7-17.3,27.3-18.9c-0.3-3.1-0.4-6.2-0.1-9.3l-1.2,1.7l-4.7-3.3
		l11.6-16.4c1.2-2.1,2.5-4,4-5.7l12.6-17.9l0,0c0.2-0.3,0.5-0.6,0.7-0.9l37.1-52.6C750.3,563.5,747.2,549.7,736.6,542.2z"/>
	<path class="st2" d="M715.8,854.7c0,7.5-6.2,13.6-13.9,13.6h-216c-7.6,0-13.9-6.1-13.9-13.6V420.8c0-7.5,6.3-13.6,13.9-13.6H702
		c7.6,0,13.9,6.1,13.9,13.6v433.9H715.8z"/>
	<polygon class="st3" points="693.6,458.1 687.8,458.1 676.6,458.1 663.9,458.1 653.3,458.1 652.6,458.1 638.4,458.1 602.6,458.1 
		590.3,458.1 577.6,458.1 565.7,458.1 547.9,458.1 536.8,458.1 501.9,458.1 500.6,458.1 489.5,458.1 483.2,458.1 483.2,507.3 
		483.1,507.3 483.1,520.5 483.2,520.5 483.2,557.1 483.2,557.1 483.2,601.3 483.1,601.3 483.1,612.3 483.2,612.3 483.2,722.1 
		483.1,722.1 483.1,732 483.2,732 483.1,782.8 483.1,782.8 483.1,796 483.1,796 483.1,829.1 483.9,829.1 495.4,829.1 520.7,829.1 
		535.2,829.1 535.2,829.1 536.8,829.1 546.1,829.1 547.9,829.1 558.8,829.1 560.4,829.1 570.1,829.1 603.9,829.1 604.4,829.1 
		616.5,829.1 646.4,829.1 658.7,829.1 661.4,829.1 676.2,829.1 704.6,829.1 704.6,798.8 704.6,778.5 704.6,773.7 704.6,767.5 
		704.6,755.6 704.6,750.4 704.6,736.9 704.6,612.3 704.6,601.3 704.6,572.4 704.6,557.1 704.6,491.6 704.6,479.4 704.6,458.1 	"/>
	<polygon class="st4" points="483.1,452.6 483.1,452.8 483.2,452.8 483.2,455.1 483.2,457.9 483.1,457.9 483.1,458.6 483.2,458.6 
		483.2,465.5 483.1,465.5 483.1,466.1 483.2,466.1 483.2,469.3 483.1,469.3 483.1,470.1 483.2,470.1 483.1,472.4 483.1,472.8 
		704.6,472.8 704.6,452.6 	"/>
	<g>
		<polygon class="st0" points="515.1,1201 618.8,982.3 392.2,874.8 237.4,1201 		"/>
		<path class="st5" d="M557.8,998.9c5.5,3,12.5,1,15.5-4.6s1-12.5-4.6-15.5c-5.5-3-12.5-1-15.5,4.5
			C550.2,989,552.2,995.9,557.8,998.9z"/>
		<polygon class="st2" points="526.8,1201 604,1038.3 353.9,919.6 220.4,1201 		"/>
	</g>
	<ellipse class="st6" cx="593.9" cy="849.4" rx="12.2" ry="12.2"/>
	<rect x="491.4" y="458.2" class="st2" width="62.3" height="6.8"/>
	<rect x="571.8" y="458.2" class="st2" width="29.2" height="6.8"/>
	<path class="st1" d="M552.9,875.6c0.9-3.5,1.6-6.9,2.2-10.3c-0.6-1.9,1.3-38.7-41.7-68.8c-19.9-13.9-43.3-10.8-54.1-9.8v88.9
		L552.9,875.6L552.9,875.6z"/>
	<path class="st1" d="M736.9,760.5c2.8,10.7-3.2,21.5-13.5,24.3L676,797.4c-10.3,2.7-20.9-3.7-23.8-14.4l0,0
		c-2.8-10.7,3.2-21.5,13.5-24.3l47.3-12.5C723.4,743.4,734,749.9,736.9,760.5L736.9,760.5z"/>
	<path class="st1" d="M733.1,653.2c5,10.6,1.4,22.9-8.1,27.4l-43.6,20.6c-9.5,4.5-21.3-0.5-26.3-11.2l0,0c-5-10.7-1.4-22.9,8.1-27.4
		l43.6-20.6C716.3,637.5,728.1,642.5,733.1,653.2L733.1,653.2z"/>
	<path class="st7" d="M658.8,744c0,14.5-11.8,26.3-26.3,26.3h-75.9c-14.5,0-26.3-11.8-26.3-26.3l0,0c0-14.5,11.8-26.3,26.3-26.3
		h75.9C647,717.7,658.8,729.5,658.8,744L658.8,744z">
    <animate
      attributeName="opacity"
      dur="1s"
      values="0.5;1;0.5"
      repeatCount="indefinite" />   
  	</path>
	<g>
		<g>
			<g>
				<animateTransform 
			       attributeName="transform" 
			       dur="2s" 
			       type="translate" 
			       values="0 30 ; 0 -30; 0 30" 
			       repeatCount="indefinite" />
				<path class="st1" d="M802.5,781.4c-11,6.8-16.9,17.3-13.1,23.5l1.9,3.2l-4.9,3l-0.3-0.5l-5.7-9.2l-1.3-2.1
					c-3.8-6.2-15.8-5.7-26.9,1.1c-11,6.8-16.9,17.3-13.1,23.5l1.3,2.1l5.7,9.2l0.3,0.5l-4.9,3l-5.6-9.1l-5.7-9.3l-4.6-7.5
					c-3.8-6.2-15.9-5.7-26.9,1.1s-16.9,17.3-13.1,23.5l4.6,7.5l5.7,9.3l5.6,9.1l-4.9,3L671,824.6l0,0c-0.2-0.3-0.4-0.7-0.6-1
					l-30.3-49.1c-6.2-10-20.1-12.7-31.1-5.9s-15,20.4-8.8,30.4l30.3,49.1c0.2,0.3,0.4,0.6,0.7,0.9h-0.1l74.2,120.7l-6.4,4L679.4,942
					c-7.3-11.9-22.8-15.6-34.7-8.3s-15.6,22.8-8.3,34.7l45.1,63.6c0,0,13,13,22.2,13.3l69.4,19.5c7.9,13,18.1,30,29,48.1l139.3-76.5
					c-24.8-40.4-46.4-76-46.4-76c0.6-6.6,2.7-37.5,1.9-47.6c-1-12.5-22-56.2-44.9-94.4l-6.2-11.5l-6.4-10.5l-1.8-3l-4.5-7.3
					l-3.6-5.9C825.5,774.1,813.5,774.6,802.5,781.4z"/>
				<g>
					<polygon class="st0" points="1094,1201 956.9,977.9 743.3,1109.1 799.8,1201 					"/>
					<path class="st5" d="M937.5,1038.1c5.5-3,7.6-9.9,4.6-15.5s-9.9-7.6-15.5-4.6c-5.5,3-7.7,9.9-4.7,15.5
						C925.1,1039,932,1041.1,937.5,1038.1z"/>
					<polygon class="st2" points="1106.4,1201 995.7,1020.8 760,1165.6 781.8,1201 					"/>
				</g>
			</g>
		</g>
	</g>
	<path class="st1" d="M735.8,715.1c2.7,11.1-3.4,22.2-13.8,24.7l-47.5,11.7c-10.3,2.6-21-4.4-23.7-15.5l0,0
		c-2.7-11.1,3.4-22.2,13.8-24.7l47.5-11.7C722.5,697.1,733.1,704,735.8,715.1L735.8,715.1z"/>
</g>
<g>
	<path class="st8" d="M549.6,753.8c-0.4,0-0.7-0.2-0.9-0.5c-0.3-0.3-0.4-0.8-0.4-1.2v-17.8c0-0.5,0.1-0.9,0.4-1.2
		c0.3-0.3,0.6-0.5,0.9-0.5h3.4c2.2,0,4.1,1,5.7,3.1c1.6,2.1,2.3,4.6,2.3,7.5s-0.8,5.4-2.3,7.5c-1.6,2.1-3.5,3.1-5.7,3.1L549.6,753.8
		L549.6,753.8z M551,750.2h2.1c1.5,0,2.8-0.7,3.8-2.1c1-1.4,1.6-3.1,1.6-5c0-2-0.5-3.6-1.6-5c-1-1.4-2.3-2.1-3.8-2.1H551V750.2z"/>
	<path class="st8" d="M571.5,753.8c-2.2,0-4.1-1-5.7-3.1c-1.6-2.1-2.4-4.6-2.4-7.5s0.8-5.5,2.4-7.6c1.6-2.1,3.5-3.1,5.7-3.1
		s4.1,1,5.7,3.1c1.6,2.1,2.4,4.6,2.4,7.6c0,2.9-0.8,5.5-2.4,7.5S573.7,753.8,571.5,753.8z M571.5,735.9c-1.5,0-2.8,0.7-3.8,2.1
		c-1.1,1.4-1.6,3.1-1.6,5.1s0.5,3.7,1.6,5.1c1.1,1.4,2.3,2.1,3.8,2.1s2.8-0.7,3.8-2.1c1.1-1.4,1.6-3.1,1.6-5.1s-0.5-3.7-1.6-5.1
		C574.2,736.6,573,735.9,571.5,735.9z"/>
	<path class="st8" d="M593.5,753.1L593.5,753.1L593.5,753.1l-8.1-13.8V752c0,0.5-0.1,0.9-0.4,1.2c-0.3,0.3-0.6,0.5-0.9,0.5
		s-0.7-0.2-0.9-0.5c-0.3-0.3-0.4-0.7-0.4-1.2v-17.8c0-0.4,0.1-0.7,0.2-1c0.2-0.3,0.4-0.5,0.7-0.6s0.5-0.1,0.8,0s0.5,0.3,0.7,0.6
		l8.1,13.8v-12.7c0-0.5,0.1-0.9,0.4-1.2c0.3-0.3,0.6-0.5,0.9-0.5s0.7,0.2,0.9,0.5c0.3,0.3,0.4,0.7,0.4,1.2v17.8c0,0,0,0,0,0.1v0.1
		c0,0,0,0,0,0.1v0.1v0.1v0.1c0,0,0,0,0,0.1v0.1v0.1v0.1c0,0,0,0,0,0.1l0,0c0,0,0,0,0,0.1v0.1c0,0,0,0,0,0.1v0.1c0,0,0,0,0,0.1
		c0,0,0,0-0.1,0.1l0,0l0,0c-0.1,0.1-0.1,0.1-0.2,0.1l0,0c-0.1,0-0.1,0.1-0.2,0.1l0,0c-0.1,0-0.1,0-0.2,0.1l0,0c-0.1,0-0.1,0-0.2,0
		h-0.1l0,0h-0.1l0,0h-0.1l0,0h-0.1l0,0h-0.1l0,0c0,0,0,0-0.1-0.1l0,0l-0.1-0.1l0,0l0,0C593.6,753.2,593.6,753.2,593.5,753.1
		C593.6,753.2,593.6,753.2,593.5,753.1z"/>
	<path class="st8" d="M599.5,753.6c-0.3-0.2-0.6-0.5-0.7-1c-0.1-0.4-0.1-0.9,0-1.3l1.4-4.5l0,0l4.1-13.2c0,0,0-0.1,0.1-0.1v-0.1
		v-0.1c0,0,0,0,0-0.1c0,0,0,0,0-0.1c0,0,0,0,0-0.1v-0.1l0,0c0,0,0-0.1,0.1-0.1l0,0c0,0,0,0,0.1-0.1l0,0h0.1c0,0,0,0,0.1,0l0,0l0,0
		h0.1c0,0,0,0,0.1,0l0,0c0,0,0,0,0.1,0h0.1c0,0,0,0,0.1,0c0,0,0,0,0.1,0c0,0,0,0,0.1,0h0.1h0.1h0.1c0,0,0,0,0.1,0c0,0,0.1,0,0,0
		c0.1,0,0.2,0.1,0.2,0.1l0,0c0,0,0.1,0,0.1,0.1l0,0c0,0,0,0,0.1,0.1l0,0c0,0,0,0,0.1,0.1c0,0,0,0,0,0.1v0.1v0.1v0.1c0,0,0,0,0,0.1
		v0.1c0,0,0,0.1,0.1,0.1l4.1,13.2l0,0l1.4,4.5c0.1,0.4,0.1,0.9,0,1.3c-0.1,0.4-0.4,0.8-0.7,1c-0.2,0.1-0.3,0.1-0.5,0.1
		c-0.6,0-1-0.4-1.2-1.1l-1.1-3.4H602l-1.1,3.4c-0.2,0.7-0.6,1.1-1.2,1.1c-0.2,0-0.3,0-0.3,0S599.7,753.7,599.5,753.6z M607.7,745.8
		l-2.2-6.9l-2.2,6.9H607.7z"/>
	<path class="st8" d="M618.2,735.9h-3.3c-0.4,0-0.7-0.2-0.9-0.5c-0.3-0.3-0.4-0.7-0.4-1.2s0.1-0.9,0.4-1.2c0.3-0.3,0.6-0.5,0.9-0.5
		h9.3c0.4,0,0.7,0.2,0.9,0.5c0.3,0.3,0.4,0.7,0.4,1.2s-0.1,0.9-0.4,1.2c-0.3,0.3-0.6,0.5-0.9,0.5h-3.3V752c0,0.5-0.1,0.9-0.4,1.2
		c-0.3,0.3-0.6,0.5-0.9,0.5c-0.4,0-0.7-0.2-0.9-0.5c-0.3-0.3-0.4-0.8-0.4-1.2L618.2,735.9L618.2,735.9z"/>
	<path class="st8" d="M636.9,750.3c0.4,0,0.7,0.2,0.9,0.5c0.3,0.3,0.4,0.8,0.4,1.2s-0.1,0.9-0.4,1.2c-0.3,0.3-0.6,0.5-0.9,0.5h-8.1
		c-0.4,0-0.7-0.2-0.9-0.5c-0.3-0.3-0.4-0.7-0.4-1.2v-17.8c0-0.5,0.1-0.9,0.4-1.2c0.3-0.3,0.6-0.5,0.9-0.5l0,0h8.1
		c0.4,0,0.7,0.2,0.9,0.5c0.3,0.3,0.4,0.8,0.4,1.2s-0.1,0.9-0.4,1.2c-0.3,0.3-0.6,0.5-0.9,0.5l0,0h-6.8v5.4h4.9
		c0.4,0,0.7,0.2,0.9,0.5c0.3,0.3,0.4,0.8,0.4,1.2s-0.1,0.9-0.4,1.2c-0.3,0.3-0.6,0.5-0.9,0.5h-4.9v5.4h6.8V750.3z"/>
</g>
<g>
	<g>
		<path class="st9" d="M682.3,518.3l9.5-18.5l2.2,1.1l2.4-4.6l-2.2-1.1l-16.9-8.7l-2.2-1.1l-2.4,4.6l2.2,1.1l-9.5,18.5
			c-10.2-1-20.4,4.2-25.3,13.8c-6.5,12.6-1.5,28.1,11.1,34.6s28.1,1.5,34.6-11.1C690.7,537.3,689,526,682.3,518.3z"/>
		<g>
			<g>
				<g>
					<g>
						<g>
							<g>
								<path class="st0" d="M680.5,512.7l9.5-18.5l2.2,1.1l2.4-4.6l-2.2-1.1l-16.9-8.7l-2.2-1.1l-2.4,4.6l2.2,1.1l-9.5,18.5
									c-10.2-1-20.4,4.2-25.3,13.8c-6.5,12.6-1.5,28.1,11.1,34.6s28.1,1.5,34.6-11.1C688.9,531.7,687.2,520.4,680.5,512.7z"/>
								<path class="st10" d="M647,512.4c-2.3,1.9-4.2,4.2-5.7,7c-5.6,10.9-1.3,24.3,9.6,29.9c10.9,5.6,24.3,1.3,29.9-9.6
									c1.4-2.8,2.4-5.7,2.6-8.7L647,512.4z"/>
							</g>
							<g>
								
									<ellipse transform="matrix(0.457 -0.8895 0.8895 0.457 -108.5884 857.594)" class="st11" cx="648.1" cy="517.7" rx="2" ry="2.1"/>
								
									<ellipse transform="matrix(0.457 -0.8895 0.8895 0.457 -111.9043 866.0719)" class="st11" cx="653.4" cy="524.7" rx="2.6" ry="2.6"/>
								
									<ellipse transform="matrix(0.457 -0.8895 0.8895 0.457 -119.4998 860.4594)" class="st11" cx="645" cy="528.1" rx="2" ry="2.1"/>
								
									<ellipse transform="matrix(0.4568 -0.8896 0.8896 0.4568 -125.9836 868.7179)" class="st11" cx="648.3" cy="537.5" rx="2.6" ry="2.6"/>
								
									<ellipse transform="matrix(0.4569 -0.8895 0.8895 0.4569 -106.8874 874.3579)" class="st11" cx="662.6" cy="524.7" rx="2.1" ry="2"/>
								
									<ellipse transform="matrix(0.457 -0.8895 0.8895 0.457 -106.1303 886.9445)" class="st11" cx="673.4" cy="530.4" rx="2.6" ry="2.6"/>
								
									<ellipse transform="matrix(0.4568 -0.8896 0.8896 0.4568 -118.6715 874.7369)" class="st11" cx="656.9" cy="534.5" rx="2" ry="2"/>
								
									<ellipse transform="matrix(0.457 -0.8895 0.8895 0.457 -115.5059 882.3557)" class="st11" cx="664.9" cy="535.8" rx="2.6" ry="2.6"/>
								
									<ellipse transform="matrix(0.457 -0.8895 0.8895 0.457 -110.3305 894.2512)" class="st11" cx="677.2" cy="537.5" rx="2.6" ry="2.6"/>
								
									<ellipse transform="matrix(0.4567 -0.8896 0.8896 0.4567 -119.2473 891.3043)" class="st11" cx="670.1" cy="543.3" rx="2.1" ry="2"/>
								
									<ellipse transform="matrix(0.4566 -0.8897 0.8897 0.4566 -126.872 882.5533)" class="st11" cx="659" cy="545.1" rx="2" ry="2"/>
							</g>
						</g>
					</g>
				</g>
			</g>
			<path class="st6" d="M683.9,485.3l-8.4-4.3l-2.2-1.1l-2.4,4.6l2.2,1.1l-9.5,18.5c-10.2-1-20.4,4.2-25.3,13.8
				c-6.5,12.6-1.5,28.1,11.1,34.6l0,0L683.9,485.3z"/>
		</g>
	</g>
	<g>
		<g>
			<path class="st9" d="M546.9,482.8l-43,14.6c-3.2,1.1-5,4.6-3.9,7.9l20.3,59.9c1.1,3.2,4.6,5,7.9,3.9l43-14.6
				c3.2-1.1,5-4.6,3.9-7.9l-20.3-59.9C553.6,483.5,550.1,481.7,546.9,482.8z"/>
			<g>
				<path class="st0" d="M569.6,544.2c1.1,3.2-0.6,6.8-3.9,7.9l-43,14.6c-3.2,1.1-6.8-0.6-7.9-3.9l-20.3-59.9
					c-1.1-3.2,0.6-6.8,3.9-7.9l43-14.6c3.2-1.1,6.8,0.6,7.9,3.9L569.6,544.2z"/>
				<g>
					<polygon class="st12" points="564.7,547.5 520.8,562.5 498.5,498 542.4,483.1 					"/>
					<g>
						<polygon class="st10" points="530.3,498.5 526.5,499.8 525.2,496 520.6,497.6 521.9,501.4 518.1,502.7 519.7,507.2 523.5,506 
							524.8,509.7 529.4,508.2 528.1,504.4 531.9,503.1 						"/>
						<g>
							<g>
								<g>
									<g>
										
											<rect x="508.7" y="513.9" transform="matrix(0.9468 -0.3218 0.3218 0.9468 -137.378 197.5653)" class="st13" width="40.4" height="0.9"/>
									</g>
									<g>
										<polygon class="st13" points="549.2,511.4 511,524.4 510.7,523.6 549,510.6 										"/>
									</g>
								</g>
								<g>
									<g>
										
											<rect x="510.9" y="520.3" transform="matrix(0.9468 -0.3218 0.3218 0.9468 -139.3142 198.6083)" class="st13" width="40.4" height="0.9"/>
									</g>
									<g>
										<polygon class="st13" points="551.5,517.9 513.2,530.9 512.9,530.1 551.2,517.1 										"/>
									</g>
								</g>
								<g>
									<g>
										
											<rect x="513.1" y="526.8" transform="matrix(0.9468 -0.3217 0.3217 0.9468 -141.2714 199.5879)" class="st13" width="40.4" height="0.9"/>
									</g>
									<g>
										
											<rect x="514.2" y="530.1" transform="matrix(0.9468 -0.3217 0.3217 0.9468 -142.2726 200.1233)" class="st13" width="40.4" height="0.9"/>
									</g>
								</g>
							</g>
							<g>
								<g>
									<g>
										
											<rect x="515.3" y="533.3" transform="matrix(0.9468 -0.3218 0.3218 0.9468 -143.266 200.7189)" class="st13" width="40.4" height="0.9"/>
									</g>
									<g>
										
											<rect x="516.4" y="536.5" transform="matrix(0.9468 -0.3217 0.3217 0.9468 -144.2188 201.1628)" class="st13" width="40.4" height="0.9"/>
									</g>
								</g>
								<g>
									<g>
										
											<rect x="517.5" y="539.8" transform="matrix(0.9468 -0.3217 0.3217 0.9468 -145.22 201.6982)" class="st13" width="40.4" height="0.9"/>
									</g>
									<g>
										
											<rect x="518.6" y="543" transform="matrix(0.9468 -0.3217 0.3217 0.9468 -146.1912 202.2185)" class="st13" width="40.4" height="0.9"/>
									</g>
								</g>
								<g>
									<g>
										
											<rect x="519.7" y="546.3" transform="matrix(0.9468 -0.3218 0.3218 0.9468 -147.2168 202.8299)" class="st13" width="40.4" height="0.9"/>
									</g>
									<g>
										
											<rect x="520.8" y="549.5" transform="matrix(0.9468 -0.3218 0.3218 0.9468 -148.1952 203.3484)" class="st13" width="40.4" height="0.9"/>
									</g>
								</g>
							</g>
						</g>
					</g>
				</g>
				<path class="st0" d="M534,484c0.8,2.4-1.1,5.4-4.4,6.4l-13.9,4.7c-3.2,1.1-6.5,0-7.4-2.5c-0.8-2.4,1.1-5.4,4.4-6.4l13.9-4.7
					C529.9,480.5,533.2,481.6,534,484z"/>
			</g>
		</g>
		<path class="st6" d="M519.4,484l-6.7,2.3c-2.8,0.9-4.6,3.3-4.5,5.4l-9.8,3.3c-3.2,1.1-5,4.6-3.9,7.9l20.3,59.9
			c1.1,3.2,4.6,5,7.9,3.9l23.2-7.9L519.4,484z"/>
	</g>
	<g>
		<path class="st9" d="M555.3,701.7l-2.2,7.9l1.1,0.3l2.2-8c0,0,0.7-5-5.3-6.7c-5.9-1.6-8.5,2.5-8.5,2.6l-0.1,0.1l-2.2,7.9l0,0
			l-0.9,3.1c-0.3,0.5-2.5,3.4-7.2,2c-4.9-1.4-4.5-5-4.5-5.4l2.2-7.9l1.5,0.4l2.2-7.9l4.6,1.3c6.7,1.9,13.7-2.1,15.6-8.8l10.1-36.3
			c1.9-6.7-2.1-13.7-8.8-15.6l-30.4-8.4c-6.7-1.9-13.7,2.1-15.6,8.8L499,667.4c-1.9,6.7,2.1,13.7,8.8,15.6l4.6,1.3l-2.2,7.9l4.2,1.2
			l2.2-7.9l12.7,3.5l-2.2,7.9l1.7,0.5l-2.2,8c0,0-0.7,5,5.3,6.7c5.9,1.6,8.5-2.5,8.5-2.6l0.1-0.1l2.2-7.9l0,0l0.9-3.1
			c0.3-0.5,2.5-3.4,7.2-2C555.7,697.6,555.4,701.3,555.3,701.7z"/>
		<g>
			<path class="st10" d="M551.9,705.8l2.2-8c0-0.1,0.7-5-5.3-6.7c-5.9-1.6-8.5,2.5-8.5,2.6l-0.1,0.1l-2.2,7.9l0,0l-0.9,3.1
				c-0.3,0.5-2.5,3.4-7.2,2c-4.9-1.4-4.5-5-4.5-5.4l2.2-7.9l-1.1-0.3l-2.2,8c0,0.1-0.7,5,5.3,6.7c5.9,1.6,8.5-2.5,8.5-2.6l0.1-0.1
				l2.2-7.9l0,0l0.9-3.1c0.3-0.5,2.5-3.4,7.2-2c4.9,1.4,4.5,5,4.5,5.4l-2.2,7.9L551.9,705.8z"/>
			<g>
				<g>
					<g>
						<g>
							<path class="st0" d="M551.6,678.5c-1.9,6.7-8.9,10.7-15.6,8.8l-30.4-8.4c-6.7-1.9-10.7-8.9-8.8-15.6l10.1-36.3
								c1.9-6.7,8.9-10.7,15.6-8.8l30.4,8.4c6.7,1.9,10.7,8.9,8.8,15.6L551.6,678.5z"/>
							<g>
								
									<rect x="507.1" y="682.5" transform="matrix(0.2674 -0.9636 0.9636 0.2674 -285.2758 994.1365)" class="st0" width="8.2" height="4.4"/>
								
									<rect x="524" y="687.3" transform="matrix(0.2674 -0.9636 0.9636 0.2674 -277.4663 1013.9612)" class="st10" width="8.2" height="4.4"/>
							</g>
						</g>
						<path class="st10" d="M509,636l-7.1,25.7c-1.6,5.7,1.8,11.6,7.4,13.1l25.6,7.1c5.7,1.6,11.6-1.8,13.1-7.4l7.1-25.7L509,636z"
							/>
					</g>
					<g>
						
							<ellipse transform="matrix(0.2675 -0.9636 0.9636 0.2675 -228.7178 1005.4966)" class="st11" cx="547" cy="653.2" rx="1.9" ry="1.9"/>
						
							<ellipse transform="matrix(0.2674 -0.9636 0.9636 0.2674 -237.3088 1002.1697)" class="st11" cx="540.4" cy="657.1" rx="1.5" ry="1.5"/>
						
							<ellipse transform="matrix(0.9055 -0.4244 0.4244 0.9055 -225.3113 289.0315)" class="st11" cx="536.2" cy="650.3" rx="1.9" ry="1.9"/>
						
							<ellipse transform="matrix(0.9055 -0.4244 0.4244 0.9055 -224.9498 285.7009)" class="st11" cx="528.9" cy="647.9" rx="1.5" ry="1.5"/>
						<g>
							
								<ellipse transform="matrix(0.2138 -0.9769 0.9769 0.2138 -224.4152 1033.3677)" class="st11" cx="529.8" cy="656.1" rx="1.9" ry="1.9"/>
							
								<ellipse transform="matrix(0.2138 -0.9769 0.9769 0.2138 -227.4071 1042.55)" class="st11" cx="534" cy="662.6" rx="1.5" ry="1.5"/>
						</g>
						<g>
							
								<ellipse transform="matrix(0.9535 -0.3014 0.3014 0.9535 -174.9302 194.4745)" class="st11" cx="542.8" cy="664.1" rx="1.9" ry="1.9"/>
							
								<ellipse transform="matrix(0.9535 -0.3015 0.3015 0.9535 -177.2074 193.827)" class="st11" cx="539.3" cy="671" rx="1.5" ry="1.5"/>
						</g>
						<g>
							
								<ellipse transform="matrix(0.5114 -0.8594 0.8594 0.5114 -320.8613 777.447)" class="st11" cx="523.2" cy="670.9" rx="1.9" ry="1.9"/>
							
								<ellipse transform="matrix(0.5116 -0.8592 0.8592 0.5116 -315.5102 782.5782)" class="st11" cx="530.6" cy="668.8" rx="1.5" ry="1.5"/>
						</g>
						<g>
							
								<ellipse transform="matrix(0.7521 -0.659 0.659 0.7521 -305.8932 509.8114)" class="st11" cx="524.8" cy="661.5" rx="1.9" ry="1.9"/>
							
								<ellipse transform="matrix(0.7527 -0.6584 0.6584 0.7527 -307.3461 504.0122)" class="st11" cx="517.2" cy="661.1" rx="1.5" ry="1.5"/>
						</g>
						<g>
							
								<ellipse transform="matrix(1.453513e-02 -0.9999 0.9999 1.453513e-02 -135.5076 1157.0723)" class="st11" cx="519.3" cy="647.3" rx="1.9" ry="1.9"/>
							
								<ellipse transform="matrix(1.535146e-02 -0.9999 0.9999 1.535146e-02 -135.9859 1167.2351)" class="st11" cx="524.7" cy="652.7" rx="1.5" ry="1.5"/>
						</g>
						<g>
							
								<ellipse transform="matrix(0.9535 -0.3013 0.3013 0.9535 -170.1751 185.0393)" class="st11" cx="514.8" cy="644.2" rx="1.9" ry="1.9"/>
							
								<ellipse transform="matrix(0.9535 -0.3015 0.3015 0.9535 -172.5103 184.455)" class="st11" cx="511.3" cy="651.1" rx="1.5" ry="1.5"/>
						</g>
						<g>
							
								<ellipse transform="matrix(0.981 -0.1939 0.1939 0.981 -118.4497 111.6435)" class="st11" cx="511.1" cy="660.9" rx="1.9" ry="1.9"/>
							
								<ellipse transform="matrix(0.9811 -0.1935 0.1935 0.9811 -116.8856 112.0773)" class="st11" cx="515.3" cy="654.4" rx="1.5" ry="1.5"/>
						</g>
						<g>
							
								<ellipse transform="matrix(0.8382 -0.5453 0.5453 0.8382 -281.4268 385.7734)" class="st11" cx="509.5" cy="667.2" rx="1.9" ry="1.9"/>
							
								<ellipse transform="matrix(0.8384 -0.5451 0.5451 0.8384 -280.9261 389.9613)" class="st11" cx="517.1" cy="668.7" rx="1.5" ry="1.5"/>
						</g>
						<g>
							
								<ellipse transform="matrix(0.8383 -0.5453 0.5453 0.8383 -281.7416 399.7532)" class="st11" cx="533" cy="674.8" rx="1.9" ry="1.9"/>
							
								<ellipse transform="matrix(0.8385 -0.5449 0.5449 0.8385 -281.2513 403.7064)" class="st11" cx="540.4" cy="676.3" rx="1.5" ry="1.5"/>
						</g>
					</g>
				</g>
				<path class="st6" d="M536.7,622.2l-14.3-4c-6.7-1.9-13.7,2.1-15.6,8.8l-10.1,36.3c-1.9,6.7,2.1,13.7,8.8,15.6l4.6,1.3l-2.2,7.9
					l4.2,1.2l2.2-7.9l5.5,1.5L536.7,622.2z"/>
			</g>
		</g>
	</g>
	<g>
		<path class="st10" d="M611.4,517.3c-3.3-11-11.5-19.2-11.5-19.2s-8.1,8.2-11.5,19.2c-3.6,11.9,6.3,16.8,11.5,16.8
			C605.1,534.1,615,529.2,611.4,517.3z"/>
		<path class="st6" d="M599.9,498.1c0,0-8.1,8.2-11.5,19.2c-3.6,11.9,6.3,16.8,11.5,16.8V498.1z"/>
	</g>
	<g>
		<path class="st9" d="M687,624.2c-3.1-10.2-10.6-17.8-10.6-17.8s-7.5,7.6-10.6,17.8c-3.4,11,5.8,15.6,10.6,15.6
			S690.4,635.2,687,624.2z"/>
		<g>
			<path class="st10" d="M683.4,621.7c-3.1-10.2-10.6-17.8-10.6-17.8s-7.5,7.6-10.6,17.8c-3.4,11,5.8,15.6,10.6,15.6
				C677.5,637.3,686.7,632.7,683.4,621.7z"/>
			<path class="st6" d="M672.7,603.9c0,0-7.5,7.6-10.6,17.8c-3.4,11,5.8,15.6,10.6,15.6V603.9z"/>
		</g>
	</g>
	<g>
		<path class="st9" d="M520.1,595.6c-2.6-8.7-9-15.1-9-15.1s-6.4,6.4-9,15.1c-2.8,9.4,4.9,13.2,9,13.2
			C515.2,608.8,522.9,605,520.1,595.6z"/>
		<g>
			<path class="st10" d="M517,593.4c-2.6-8.7-9-15.1-9-15.1s-6.4,6.4-9,15.1c-2.8,9.4,4.9,13.2,9,13.2
				C512.1,606.7,519.8,602.8,517,593.4z"/>
			<path class="st6" d="M508,578.4c0,0-6.4,6.4-9,15.1c-2.8,9.4,4.9,13.2,9,13.2V578.4z"/>
		</g>
	</g>
	<g>
		<path class="st9" d="M644.9,592.9c0-0.1,0-0.1,0-0.2v-0.1c-0.6-8.9-6.3-16.6-14.7-19.6c-8.7-3-18.9-0.5-25.1,6.3
			c-5.3-8.7-16.9-13.3-26.7-10.1c-8.5,2.8-15,11.7-14.6,20.7c0.6,11.2,9.1,19.7,16.3,27.4c6.4,6.7,13,13,19.9,19.2
			c0.3,0.2,0.7,0.2,1,0.1c4.2-1.8,8.1-4.6,11.9-7c5.1-3.2,10.2-6.6,15.1-10.2C636.6,613.1,645.2,604.2,644.9,592.9z"/>
		<g>
			<g>
				<path class="st10" d="M642.2,588.1c0-0.1,0-0.1,0-0.2v-0.1c-0.6-8.9-6.3-16.6-14.7-19.6c-8.7-3-18.9-0.5-25.1,6.3
					c-5.3-8.7-16.9-13.3-26.7-10.1c-8.5,2.8-15,11.7-14.6,20.7c0.6,11.2,9.1,19.7,16.3,27.4c6.4,6.7,13,13,19.9,19.2
					c0.3,0.2,0.7,0.2,1,0.1c4.2-1.8,8.1-4.6,11.9-7c5.1-3.2,10.2-6.6,15.1-10.2C633.8,608.3,642.5,599.4,642.2,588.1z"/>
				<g>
					<path class="st14" d="M573.7,607.6c3.6,0.3,7.2,0.7,10.7,1c0.4,0,0.8-0.2,0.9-0.6c1.7-5.2,3.4-10.3,5.1-15.5
						c-0.6-0.1-1.1-0.1-1.7-0.2c1.2,11.1,2.5,22.3,3.7,33.4c0.1,1,1.6,0.8,1.7-0.1c2.9-16.5,5.7-32.9,8.5-49.4c-0.6,0-1.1,0-1.7,0.1
						c0.9,13.9,1.8,27.9,2.7,41.8c0.1,0.9,1.4,0.9,1.7,0.2c1.8-5.4,3.6-10.8,5.3-16.3c-0.5,0-1.1,0-1.6,0.1
						c1.2,3.5,2.4,7.1,3.6,10.6c0.1,0.3,0.4,0.5,0.7,0.5c3.9,0.4,7.7,0.7,11.6,1.1c1.1,0.1,1.3-1.6,0.2-1.7
						c-3.8-0.4-7.7-0.7-11.5-1.1c0.6,0.1,0.8,0.8,0.5,0.1c-0.1-0.4-0.3-0.7-0.4-1.1c-0.4-1.1-0.8-2.3-1.2-3.5
						c-0.6-1.9-1.3-3.7-1.9-5.6c-0.2-0.7-1.4-0.6-1.6,0.1c-1.8,5.4-3.6,10.8-5.3,16.3c0.6,0.1,1.1,0.1,1.7,0.2
						c-0.9-13.9-1.8-27.9-2.7-41.8c-0.1-1-1.6-0.8-1.7,0.1c-2.8,16.5-5.7,32.9-8.5,49.4c0.6,0,1.1-0.1,1.7-0.1
						c-1.2-11.1-2.5-22.3-3.7-33.4c-0.1-0.9-1.4-1-1.7-0.2c-1.5,4.6-3.1,9.3-4.6,13.9c-0.1,0.3-0.2,0.7-0.3,1c-0.3,1-0.1-0.1,0.7,0
						c-1.1-0.1-2.2-0.2-3.3-0.3c-2.4-0.2-4.9-0.5-7.3-0.7C572.7,605.8,572.6,607.5,573.7,607.6L573.7,607.6z"/>
				</g>
			</g>
			<path class="st6" d="M602.3,574.4c-5.4-8.6-16.9-13.3-26.7-10.1c-8.5,2.8-15,11.7-14.6,20.7c0.6,11.2,9.1,19.7,16.3,27.4
				c6.3,6.7,13,12.9,19.8,19.1L602.3,574.4z"/>
		</g>
	</g>
	<g>
		<path class="st9" d="M619.2,674.2c-4-13-13.6-22.7-13.6-22.7s-9.6,9.7-13.6,22.7c-4.3,14.1,7.4,19.9,13.6,19.9
			C611.8,694.1,623.5,688.3,619.2,674.2z"/>
		<g>
			<g>
				<path class="st10" d="M616.7,671.7c-4-13-13.6-22.7-13.6-22.7s-9.6,9.7-13.6,22.7c-4.3,14.1,7.4,19.9,13.6,19.9
					C609.2,691.6,621,685.8,616.7,671.7z"/>
				<g>
					<g>
						<defs>
							<path id="SVGID_1_" d="M616.7,671.7c-4-13-13.6-22.7-13.6-22.7s-9.6,9.7-13.6,22.7c-4.3,14.1,7.4,19.9,13.6,19.9
								C609.2,691.6,621,685.8,616.7,671.7z"/>
						</defs>
						<clipPath id="SVGID_2_">
							<use xlink:href="#SVGID_1_"  style="overflow:visible;"/>
						</clipPath>
						<path class="st15" d="M621,678.4c-2.4,0-4.7,0-7.1,0c-0.1-0.2-0.2-0.5-0.3-0.7c-0.3-0.7-0.6-1.4-0.9-2.1
							c-0.5-1.2-1-2.3-1.5-3.5c-0.2-0.4-0.9-0.3-1,0.1c-0.6,2.6-1.2,5.3-1.8,7.9c-1.2-7.9-2.4-15.9-3.7-23.8c-0.1-0.7-1-0.4-1.1,0.1
							c-0.8,9.4-1.5,18.7-2.3,28.1c-1.2-5.8-2.4-11.6-3.5-17.4c-0.1-0.5-0.9-0.5-1.1,0c-0.7,3.1-1.4,6.1-2.1,9.2
							c0,0.2-0.1,0.4-0.1,0.6c-0.6,0-1.2,0-1.7,0c-1.6,0-3.2,0-4.7,0c-0.7,0-0.7,1.1,0,1.1c2.3,0,4.6,0,6.9,0c0.2,0,0.5-0.2,0.5-0.4
							c0.6-2.6,1.2-5.1,1.8-7.7c1.3,6.2,2.5,12.5,3.8,18.7c0.1,0.6,1,0.4,1.1-0.1c0.8-9.1,1.5-18.2,2.2-27.3
							c1.1,7.3,2.3,14.7,3.4,22c0.1,0.5,0.9,0.5,1.1,0c0.7-3,1.4-6.1,2.1-9.1c0.7,1.7,1.5,3.4,2.2,5.1c0.1,0.2,0.3,0.3,0.5,0.3
							c2.5,0,5,0,7.4,0C621.7,679.5,621.7,678.4,621,678.4z"/>
					</g>
				</g>
			</g>
			<path class="st6" d="M603.1,649L603.1,649c0,0-9.6,9.7-13.6,22.7c-4.3,14.1,7.4,19.9,13.6,19.9l0,0V649z"/>
		</g>
	</g>
</g>

</svg>
