<?xml version="1.0" encoding="utf-8"?>
<!-- Generator: Adobe Illustrator 21.0.0, SVG Export Plug-In . SVG Version: 6.00 Build 0)  -->
<svg version="1.1" id="Objects" xmlns="http://www.w3.org/2000/svg" xmlns:xlink="http://www.w3.org/1999/xlink" x="0px" y="0px"
	 viewBox="0 0 1200.1 900.1" style="enable-background:new 0 0 1200.1 900.1;" xml:space="preserve">
<style type="text/css">
	.st0{fill:none;stroke:#FFFFFF;stroke-width:8;stroke-miterlimit:15;stroke-dasharray:14.2472,14.2472;}
	.st1{fill:none;stroke:#FFFFFF;stroke-width:6;stroke-miterlimit:10;stroke-dasharray:40,40;}
	.st2{fill-opacity:0.2;}
	.st3{opacity:0.63;fill:#1A1A1A;enable-background:new    ;}
	.st4{fill:#D0A785;}
	.st5{fill:#FFD6B6;}
	.st6{fill:#5E3419;}
	.st7{fill:#4D4D4D;}
	.st8{fill:#CCE9F9;}
	.st9{fill:#FFFFFF;}
	.st10{fill:#CBCBCB;}
	.st11{fill:#989898;}
	.st12{fill:#93C6E2;}
	.st13{fill:#E8B698;}
	.st14{fill:#DB9D77;}
	.st15{fill:#FCDFCD;}
	.st16{fill:#D1926B;}
	.st17{fill:#FF0000;}
	.st18{fill:none;stroke:#FFFFFF;stroke-width:7.2;stroke-linecap:round;stroke-linejoin:round;stroke-miterlimit:22.9256;}
	.st19{fill:#57291E;}
	.st20{fill:#E5E5E5;}
	.st21{fill:#044F78;}
	.st22{fill:#B2B2B2;}
	.st23{fill:#E84C3B;}
	.st24{fill:#043752;}
</style>
<g>
	<circle class="st0" cx="584" cy="469.3" r="330">
	
		<animateTransform  accumulate="none" additive="replace" attributeName="transform" attributeType="XML" calcMode="linear" dur="20s" fill="remove" from="0 584 469.3" repeatCount="indefinite" restart="always" to="360 584 469.3" type="rotate">
		</animateTransform>
	</circle>
	<circle class="st1" cx="584" cy="469.3" r="350">
	
		<animateTransform  accumulate="none" additive="replace" attributeName="transform" attributeType="XML" calcMode="linear" dur="10s" fill="remove" from="0 584 469.3" repeatCount="indefinite" restart="always" to="-360 584 469.3" type="rotate">
		</animateTransform>
	</circle>
	<circle class="st2" cx="584" cy="469.3" r="297.4"/>
</g>
<g>
	<path class="st3" d="M576.2,679.2c191.5,0,347.8-5.6,347.8-12.5s-156.2-12.5-347.8-12.5c-191.5,0-347.8,5.6-347.8,12.5
		C228.4,673.5,384.6,679.2,576.2,679.2z"/>
	<g>
		<path class="st4" d="M818.6,415.7l-21.2,35c-5.5,9.1-32.3,5.8-27.3-1.7l30.6-45.9C808.7,391.1,826.8,403.8,818.6,415.7z"/>
		<path class="st5" d="M823.4,419.3c-21.8,15.4-54.6,20-68.4,3.5c-13.8-16.5-3.1-47.5,16.3-65.8c3.7-2.6,7.5-4.8,11.5-6.4
			c36.8-15.1,71.3,29.3,47.5,61C828.3,414.4,826,416.9,823.4,419.3z"/>
		<path class="st4" d="M748.7,403.4c3.2,0.9,7,1,10.8,0.1c3.7-0.8,7.4-2.4,10.5-4.8c0.4-0.3,1-0.2,1.3,0.2c0.3,0.4,0.2,1-0.2,1.3
			c-3.4,2.6-7.3,4.3-11.3,5.1c-3.9,0.8-7.8,0.8-11.2,0C748.6,404.7,748.6,404,748.7,403.4z"/>
		<path class="st6" d="M809.8,433.6c-12.7-14.9-11.5-33.5-7.6-60.6c-10.9-1.6-24.7-4.6-36.6-10.1c6.7-7.6,10.2-10,18.7-13.5
			c31.3-12.7,72,24.4,52.3,61.2C831.9,419.4,822.4,427,809.8,433.6z"/>
		<g>
			
				<ellipse transform="matrix(0.8853 -0.4649 0.4649 0.8853 -100.5639 421.6791)" class="st4" cx="804.7" cy="414.7" rx="9.1" ry="5.7"/>
			<ellipse transform="matrix(0.8853 -0.465 0.465 0.8853 -99.6816 422.1589)" class="st5" cx="806" cy="413.2" rx="9.1" ry="5.7"/>
		</g>
		
			<ellipse transform="matrix(0.7671 -0.6415 0.6415 0.7671 -69.8203 574.623)" class="st4" cx="756.5" cy="383.5" rx="4.6" ry="4.3"/>
		
			<ellipse transform="matrix(0.7672 -0.6414 0.6414 0.7672 -67.9825 573.5721)" class="st5" cx="756.2" cy="380.4" rx="6.4" ry="6.4"/>
		
			<ellipse transform="matrix(0.7672 -0.6415 0.6415 0.7672 -62.9338 584.2526)" class="st7" cx="773.3" cy="378.8" rx="3.8" ry="3.8"/>
		<path class="st8" d="M768.5,504.2c-7.5,5.6-65.2,3.4-75.4,2.5c-4.7-18.9-7.2-21.1-2-45c23.3-0.8,57.1-1.4,77.7-15
			c6.8,0.3,25.9,2.8,32.3-0.6C798.1,455.7,807.6,475.1,768.5,504.2z"/>
		<path class="st9" d="M887.5,370.2L887.5,370.2c10.4,6.6,13.4,20.5,6.9,30.8l-60.8,95.6c-6.6,10.4-20.5,13.4-30.8,6.9l0,0
			c-10.4-6.6-13.4-20.5-6.9-30.8l60.8-95.6C863.2,366.7,877.1,363.6,887.5,370.2z"/>
		<rect x="466" y="551.4" class="st10" width="452.5" height="18.6"/>
		<path class="st10" d="M918.4,384.7v176c0,5.1-4.2,9.3-9.3,9.3l0,0c-5.1,0-9.3-4.2-9.3-9.3v-176c0-5.1,4.2-9.3,9.3-9.3l0,0
			C914.2,375.4,918.4,379.6,918.4,384.7z"/>
		<path class="st9" d="M899.8,529.1L899.8,529.1c0,12.3-10,22.3-22.3,22.3H542.2c-12.3,0-22.3-10-22.3-22.3l0,0
			c0-12.3,10-22.3,22.3-22.3h335.3C889.8,506.7,899.8,516.8,899.8,529.1z"/>
		<g>
			<g>
				<rect x="599" y="557.8" class="st10" width="11.2" height="99.3"/>
				<rect x="774.2" y="557.8" class="st10" width="11.2" height="99.3"/>
			</g>
			<rect x="599" y="636" class="st10" width="186.4" height="11.4"/>
			<path class="st9" d="M604.6,673c11.3,0,20.6-9.2,20.6-20.6c0-11.3-9.2-20.6-20.6-20.6c-11.3,0-20.6,9.2-20.6,20.6
				C584,663.7,593.3,673,604.6,673z"/>
			<path class="st11" d="M604.6,661.8c5.2,0,9.4-4.2,9.4-9.4s-4.2-9.4-9.4-9.4s-9.4,4.2-9.4,9.4S599.4,661.8,604.6,661.8z"/>
			<path class="st9" d="M779.8,673c11.3,0,20.6-9.2,20.6-20.6c0-11.3-9.2-20.6-20.6-20.6c-11.3,0-20.6,9.2-20.6,20.6
				C759.2,663.7,768.5,673,779.8,673z"/>
			<path class="st11" d="M779.8,661.8c5.2,0,9.4-4.2,9.4-9.4s-4.2-9.4-9.4-9.4s-9.4,4.2-9.4,9.4
				C770.3,657.6,774.6,661.8,779.8,661.8z"/>
		</g>
		<path class="st10" d="M484.6,476.2v84.5c0,5.1-4.2,9.3-9.3,9.3l0,0c-5.1,0-9.3-4.2-9.3-9.3v-84.5c0-5.1,4.2-9.3,9.3-9.3l0,0
			C480.4,466.9,484.6,471.1,484.6,476.2z"/>
		<path class="st9" d="M693.1,461.7v89.7H484.6v-55.7c0-16.9,34.5-34,56.3-34L693.1,461.7L693.1,461.7z"/>
		<path class="st12" d="M764.3,454.3l-23.6,25.6l-47.7,5.2v21.6l53.8-1.7l41.6-29.9C814.5,456.5,777.5,440,764.3,454.3z"/>
		<path class="st8" d="M765.6,456.4l-25.4,26.7c-10.4,10.9-1.7,24.8,10.5,16.5l34.8-23.7C812,458,775.1,441.8,765.6,456.4z"/>
		<g>
			<g>
				<rect x="642.1" y="487.5" class="st13" width="45.2" height="16.8"/>
				<path class="st14" d="M633.6,488.1c3.2-2.3,9.6-4.3,14.3-2.1c4.7,2.2,5.8,13.8,0,18.4c-3.9,3.1-12.5,2.4-17.7,2.1
					c-3.9-0.2-3-1.4-4.8-3.2C620.4,498.2,630.4,490.4,633.6,488.1z"/>
				<path class="st14" d="M640.4,485.1c1.7-2.9,4.3-2.2,6.5,0.7c2.2,2.9,2.7,6.2,1,9.1s-4.8,2.9-7,0.1
					C638.8,492.1,638.7,488,640.4,485.1z"/>
				<path class="st13" d="M630.2,486.5c2.8-0.1,5.6-0.1,7-0.7c4.5-2.1,0.3-6.3-0.8-9.2c-1.8-5,1.3-6.8,2.9-4.6
					c0.7,1,1.4,2.1,2.3,3.7c1.7,3.1,5,5.9,6.2,8c0.7,1.2,1.5,2.6,2,4c2.4,4.8,2,13-2.4,16.6c-3.8,3.1-12.2,2.4-17.4,2.1
					c-3.8-0.2-2.9-1.4-4.7-3.2C620.5,498.2,626.6,486.6,630.2,486.5z"/>
				<path class="st14" d="M623.3,491.6h9.8c3.6,0,3.6-5.2,0-5.2h-9.8C619.8,486.5,619.8,491.6,623.3,491.6z"/>
				<path class="st13" d="M623.1,491.3h9.7c3.3,0,3.3-4.8,0-4.8h-9.7C619.8,486.5,619.8,491.3,623.1,491.3z"/>
				<path class="st15" d="M631.9,491h1c2.8,0,2.8-4.2,0-4.2h-1C630.6,486.8,630.6,491,631.9,491z"/>
				<path class="st14" d="M641.5,496.3c-4.9-1.7-6.5-7.6-3.1-11.3C633.2,489.1,635.7,495.7,641.5,496.3z"/>
				<path class="st14" d="M622.1,496.8h13.3c3.6,0,3.6-5.2,0-5.2h-13.3C618.6,491.6,618.6,496.8,622.1,496.8z"/>
				<path class="st13" d="M622,496.4h13.2c3.3,0,3.3-4.8,0-4.8H622C618.6,491.6,618.6,496.4,622,496.4z"/>
				<path class="st15" d="M634.3,496.1h1c2.8,0,2.8-4.2,0-4.2h-1C633,491.9,633.1,496.1,634.3,496.1z"/>
				<path class="st14" d="M622.7,501.9h11.8c3.6,0,3.6-5.2,0-5.2h-11.8C619.2,496.8,619.2,501.9,622.7,501.9z"/>
				<path class="st13" d="M622.6,501.5h11.7c3.3,0,3.3-4.8,0-4.8h-11.8C619.2,496.8,619.2,501.5,622.6,501.5z"/>
				<path class="st15" d="M633.4,501.3h1c2.8,0,2.8-4.2,0-4.2h-1C632.2,497,632.2,501.3,633.4,501.3z"/>
				<path class="st14" d="M624.5,506.7h7.7c3.3,0,3.3-4.8,0-4.8h-7.7C621.2,501.9,621.2,506.7,624.5,506.7z"/>
				<path class="st13" d="M624.4,506.4h7.6c3.1,0,3.1-4.4,0-4.4h-7.6C621.3,501.9,621.3,506.4,624.4,506.4z"/>
				<path class="st15" d="M631.2,506.1h0.9c2.6,0,2.6-4,0-4h-0.9C630,502.2,630,506.1,631.2,506.1z"/>
				<path class="st14" d="M651.4,501c1.4-2.6,1-7.7,0.2-10.2C653.7,493.2,654.2,498.2,651.4,501z"/>
				<path class="st14" d="M674.6,495.9c-7.1-0.2-14.4-0.3-21.6-0.9c-0.1,0-0.1,1.8-0.2,1.7C660,496.2,667.4,496.1,674.6,495.9z"/>
				<rect x="684.4" y="484.8" class="st9" width="7.4" height="22.2"/>
				<g>
					<path class="st16" d="M673.7,490c0,3.2,0,8.7,0,11.9c2,0.7,3.9,0.8,5.6,0c0-3.2,0-8.7,0-11.9
						C677.6,489.2,675.8,489.2,673.7,490z"/>
				</g>
			</g>
			<path class="st15" d="M638.5,471.4c0.3,0.1,0.6,0.3,0.8,0.6l1.4,2.5c-0.8,0.5-1.1,0.6-2.1,0.7C637.5,473.9,637,472.1,638.5,471.4
				z"/>
		</g>
		<g>
			<g>
				<path class="st17" d="M522,339c-3.7-41.8-5.6-76.4-5.4-104.5h-70.9c0.2,27.9-1.7,62.7-5.4,104.5
					C466.5,350.1,495.8,350.1,522,339z				">
<animate  accumulate="none" additive="replace" attributeName="d" attributeType="XML" begin="0.5s" calcMode="linear" dur="3s" fill="remove" from="M522,342.5c-3.7-3.7-5.6-6.8-5.4-9.3h-70.9c0.2,2.5-1.7,5.6-5.4,9.3C466.5,343.5,495.8,343.5,522,342.5z" repeatCount="indefinite" restart="always" to="M522,339c-3.7-41.8-5.6-76.4-5.4-104.5h-70.9c0.2,27.9-1.7,62.7-5.4,104.5
					C466.5,350.1,495.8,350.1,522,339z">
						</animate>
				</path>
				<rect x="494.4" y="326.7" class="st9" width="28.1" height="3.2"/>
				<rect x="494.4" y="311.5" class="st9" width="26.9" height="3.2"/>
				<rect x="494.4" y="296.2" class="st9" width="25.2" height="3.2"/>
				<rect x="494.4" y="281" class="st9" width="24.4" height="3.2"/>
				<path class="st9" d="M481.1,210.3L481.1,210.3l-14.8,19.9c-8.5-0.4-17-1.3-25.3-2.6l-6.8-1.1l2.3,6.3
					c4.5,12.2,5.2,27.8,5.2,40.6c0,9.8-0.6,19.6-1.4,29.3c-1,11.8-2.4,23.6-3.9,35.4l-0.4,3.4l3.4,0.9c13.5,3.7,27.7,5.6,42,5.6
					v-3.9c-13.9,0-27.7-1.8-40.8-5.4c6.9-51.4,7.6-86.6,0-107.1c12.7,2,26.8,3,40.8,3v-3.9l0,0c-3.3,0-6.6-0.1-10-0.2l10-13.3l0,0
					v-6.9H481.1z M526,338.1c-1.6-11.8-3-23.6-3.9-35.4c-0.8-9.7-1.4-19.5-1.4-29.3c-0.1-12.9,0.7-28.4,5.2-40.6l2.3-6.3l-6.8,1.1
					c-8.3,1.3-16.8,2.1-25.3,2.6l-15-19.9v6.8l10,13.3c-3.3,0.1-6.7,0.2-10,0.2v3.9c14.1,0,28.1-1,40.8-3
					c-7.6,20.5-6.9,55.7,0,107.1c-13.1,3.6-27,5.4-40.8,5.4v3.9c14.2,0,28.5-1.9,42-5.6l3.4-0.9L526,338.1z"/>
				<rect x="487" y="347.3" class="st9" width="4.2" height="7.8"/>
				<rect x="488" y="353.3" class="st9" width="2.2" height="18.9"/>
				<rect x="486.6" y="358.5" class="st9" width="5.1" height="3.1"/>
				<rect x="485.7" y="359.9" class="st9" width="6.7" height="10.2"/>
				<rect x="475.8" y="347.3" class="st9" width="4.2" height="7.8"/>
				<rect x="476.7" y="353.3" class="st9" width="2.2" height="2.8"/>
			</g>
			<path class="st18" d="M548.5,343.7V257c0-37.4,59.4-39.8,59.4,0v161.4"/>
			<path class="st18" d="M548.5,320.3v60.8c0,37.4-59.4,39.8-59.4,0v-35.6"/>
			<path class="st18" d="M674.7,496.6h-41.1c-12.9,0-25.8-7.8-25.8-25.1v-79.2"/>
		</g>
		<path class="st8" d="M741.7,482.2l-47.5,3.9l-0.2,18.5l45.8-1C760,503.2,755,481.1,741.7,482.2z"/>
		<path class="st10" d="M564.4,467.2h150.2c10,0,19,4.1,25.6,10.6c6.6,6.6,10.6,15.6,10.6,25.6V560h-12.4v-56.6
			c0-6.5-2.7-12.5-7-16.8s-10.3-7-16.8-7H564.4c-6.5,0-12.5,2.7-16.8,7s-7,10.3-7,16.8V560h-12.4v-56.6c0-10,4.1-19,10.6-25.6
			C545.4,471.3,554.4,467.2,564.4,467.2z"/>
		<rect x="554.4" y="474.3" class="st10" width="12.4" height="85.8"/>
		<rect x="580.7" y="474.3" class="st10" width="12.4" height="85.8"/>
		<rect x="607" y="474.3" class="st10" width="12.4" height="85.8"/>
		<rect x="633.3" y="474.3" class="st10" width="12.4" height="85.8"/>
		<rect x="659.6" y="474.3" class="st10" width="12.4" height="85.8"/>
		<rect x="685.8" y="474.3" class="st10" width="12.4" height="85.8"/>
		<rect x="712.1" y="474.3" class="st10" width="12.4" height="85.8"/>
	</g>
</g>
<g>
	<path class="st5" d="M246.7,489.5l2.9-14.1l0,0l0.4-1.6l1.2-5.9c0.1-0.2,0.1-0.5,0.3-0.7l0.8-3.6v-1.3h0.3l1.6-7.2l14.5,3.2
		l-1.7,7.8c0.2,0.6,0.2,1.3,0.1,1.9l-1.4,4.8v0.6c1.8,0.8,2.8,3.8,3,5.4l2,14.5c0.4,3.4-4.7,4.1-5.2,0.6l-0.7-4.4l0,0
		c-0.2-1.3-0.5-2.3-1.1-3c-0.9-0.5-2.2,0.8-2.9,3.2l-0.4,1.4l-0.4,3.8l0.1,5.9l1.6,2.3c0.8,1.1,0.5,2.6-0.6,3.4l0,0
		c-0.2,0.2-0.5,0.3-0.8,0.3v1.7c0.1,1.3-1,2.5-2.3,2.6l0,0c-1.3,0.1-2.5-1-2.6-2.3l-0.1-2c-0.5-0.3-0.9-0.7-1.1-1.3l-3.4-7.1
		l-3.4-5.5h0.1C246.7,491.9,246.4,490.7,246.7,489.5z"/>
	<g>
		<path class="st19" d="M299.7,644.4c-1.8,3.6-2.7,13.9-1.6,19.1c1.2,5.2,1.3,5.7,4.6,6.8s4.3,1.2,4.8-0.3s6.2,3.1,9.7,4.7
			c6.1,2.6,30.9,9.1,35.3-0.9c1.4-3.2-5.1-9.5-9.6-12.8c-7.9-5.8-11.2-6.3-17.4-15.5c-2.5-3.8-7.1-3.3-9.9-1.6s-4.7,9.7-9,7.6
			C302.4,649.3,300.8,642.9,299.7,644.4z"/>
		<path class="st19" d="M351.1,644.4c-1.8,3.6-2.7,13.9-1.6,19.1c1.2,5.2,1.3,5.7,4.6,6.8c3.3,1.1,4.3,1.2,4.8-0.3s6.2,3.1,9.7,4.7
			c6.1,2.6,30.9,9.1,35.3-0.9c1.4-3.2-5.1-9.5-9.6-12.8c-7.9-5.8-11.2-6.3-17.4-15.5c-2.5-3.8-7.1-3.3-9.9-1.6
			c-2.8,1.7-4.7,9.7-9,7.6C353.8,649.3,352.2,642.9,351.1,644.4z"/>
	</g>
	<polygon class="st20" points="299.6,428.6 338.5,428.6 344.9,428.6 383.8,428.6 384.3,653.6 348.8,653.6 341.7,498.3 334.6,653.6 
		298.4,653.6 	"/>
	<path class="st21" d="M401.2,350.3c-14.2,3.3-18.6,7-17.4,78.3c0.2,10.3,6.3,35.6,0.1,37c-22.5,5-63.1,4.1-84.8-2.8
		c-5.4-1.7,0.5-24.2,0.5-34.2c0-72.1-12.6-72-23-82.9C300.9,310.8,382.2,313.7,401.2,350.3z"/>
	<path class="st4" d="M356,266.6v53.5c0,14.1-28.8,14.3-28.8,0v-53.5C327.2,247.6,356,247.6,356,266.6z"/>
	<path class="st9" d="M304.8,354.6L271,477.5l-23.4-4.6l21.9-109.8C279,316.3,309.1,339.2,304.8,354.6z"/>
	<path class="st6" d="M395,227.1c10.8,41.5-16.9,57-53.4,57c-37.6,0-65.8-19-52.4-60.6C305.1,174.3,382,176.9,395,227.1z"/>
	<g>
		
			<ellipse transform="matrix(0.2112 -0.9774 0.9774 0.2112 56.5739 591.0536)" class="st4" cx="394.5" cy="260.5" rx="12.1" ry="7.5"/>
		
			<ellipse transform="matrix(0.2112 -0.9774 0.9774 0.2112 58.5715 588.3304)" class="st5" cx="393.8" cy="257.9" rx="12.1" ry="7.5"/>
	</g>
	<path class="st5" d="M396.4,241.3c-2.5,34.1-20.2,68.3-47.8,70c-29,1.8-59.4-22.8-61.9-70c0.4-5.7,1.4-11.3,3.1-16.5
		c15.7-48.5,91.6-45.9,104.5,3.5C395.4,232.5,396.1,236.9,396.4,241.3z"/>
	<path class="st7" d="M330.8,259c2.8,0,5-2.2,5-5c0-2.8-2.2-5-5-5c-2.8,0-5,2.2-5,5C325.8,256.8,328.1,259,330.8,259z"/>
	<circle class="st7" cx="372.5" cy="254" r="5"/>
	<path class="st4" d="M373.3,285.6c-4.8,6.2-12.7,10.2-21.7,10.2s-16.9-4-21.7-10.2H373.3z"/>
	<path class="st9" d="M364.3,285.6c-2.8,3.6-7.4,6-12.6,6s-9.9-2.4-12.6-6H364.3z"/>
	<path class="st6" d="M394.1,254.5c-10-13.5-13-23.9-15.5-33.2c-5.5,13.9-21.3,25.2-41,30.5c11.9-15.8,16.1-27.1,14.7-38.8
		c-6.9,8.3-39,38.3-65,50.7c-3.4-15.8-1.6-28.5,2.2-40.1c15.8-49.3,92.3-46.6,105.3,3.5C397,235.8,398.4,244.4,394.1,254.5z"/>
	<g>
		
			<ellipse transform="matrix(0.9716 -0.2365 0.2365 0.9716 -53.4383 75.4218)" class="st4" cx="287.7" cy="260.5" rx="7.5" ry="12.1"/>
		
			<ellipse transform="matrix(0.9716 -0.2366 0.2366 0.9716 -52.8284 75.4997)" class="st5" cx="288.2" cy="257.9" rx="7.5" ry="12.1"/>
	</g>
	<path class="st4" d="M351.6,278.4c4.4,0,7.9-3.6,7.9-7.9c0-4.4-3.6-7.9-7.9-7.9c-4.4,0-7.9,3.6-7.9,7.9S347.3,278.4,351.6,278.4z"
		/>
	<path class="st5" d="M351.6,275.7c5.6,0,10.3-3.6,10.3-7.9c0-4.4-4.6-7.9-10.3-7.9c-5.7,0-10.3,3.6-10.3,7.9
		C341.4,272.1,346,275.7,351.6,275.7z"/>
	<path class="st9" d="M396.9,338.2l31.1,63.3l-19.3,12.8l-29.6-43.2C352.2,331.7,389.8,323.9,396.9,338.2z"/>
	<path class="st9" d="M328.5,488c-7.5,1.4-23,6.8-35.2-2.7c1.4-20.3,3-87.4,5-111.1c0.3-13.3-27.2-21.1-21.7-30.3
		c8.4-14.1,38.8-22.9,48.5-22.9C323,342.7,327.8,468.3,328.5,488z"/>
	<path class="st9" d="M352.2,488c7.5,1.4,23,6.8,35.2-2.7C386,465,386,406,386,382.3c-0.9-19.8,15-40,8.3-46.8
		c-7-7.2-27.1-15-37.8-15C358.6,342.1,352.9,468.3,352.2,488z"/>
	
		<rect x="336.2" y="365.8" transform="matrix(0.4061 -0.9138 0.9138 0.4061 -135.1999 580.559)" class="st10" width="85.7" height="57"/>
	<path class="st5" d="M363.7,380.2c-5-7.8-8.7-16.9-12.3-13.3c-3.7,3.7-4.6-2.3-7.3,2.3c-2.7,4.6-12.4,11.9-5.9,16.5
		c6.4,4.6,17.8,8.2,23.8,9.6C367.8,396.6,372,386.6,363.7,380.2z"/>
	<path class="st9" d="M422.1,395.1L362.5,380l-6.5,17.9l40,17.6C432.5,431.5,435.1,398.5,422.1,395.1z"/>
	
		<rect x="392.4" y="329.4" transform="matrix(0.4061 -0.9138 0.9138 0.4061 -92.3175 573.7415)" class="st22" width="5.8" height="57"/>
	<path class="st23" d="M399.9,343.3c0.4,0,0.9,0.1,1.3,0.3l0,0c1.6,0.7,2.3,2.6,1.6,4.2l-2.9,6.6V348c0.6,0,1.1-0.3,1.3-0.9
		c0.3-0.7,0-1.6-0.7-1.9c-0.2-0.1-0.4-0.1-0.6-0.1V343.3L399.9,343.3z M399.9,356.8l4.5,2c0.9,0.4,1.3,1.5,0.9,2.4l-1.8,4l-3.7-1.6
		v-6.8H399.9z M387.8,351.4l5.4,2.4l3.8-8.6c0.5-1.2,1.7-1.9,2.9-1.9v1.7c-0.6,0-1.1,0.3-1.3,0.9c-0.3,0.7,0,1.6,0.7,1.9
		c0.2,0.1,0.4,0.1,0.6,0.1v6.4l-0.9,2l0.9,0.4v6.7l-16.3-7.2l1.8-4C385.8,351.4,386.9,351,387.8,351.4z"/>
	<g>
		<path class="st21" d="M371.4,356.5c-0.1,1.1,0.7,2,1.8,2.1s2-0.7,2.1-1.7c0.7-7.4-1.7-17-5.3-25.1c-4-9-9.6-16.4-14.1-17.5l0,0
			v4.1c3.2,1.6,7.3,7.6,10.6,14.9C369.7,340.9,372,349.8,371.4,356.5z"/>
		<path class="st21" d="M310.9,337.4c0.7-1.9,1.4-3.8,2.2-5.6c4-9,9.5-16.3,14.1-17.5v4.1c-3.2,1.7-7.3,7.6-10.5,14.9
			c-0.6,1.3-1.1,2.7-1.7,4.1H310.9z"/>
		<path class="st21" d="M371.8,365.5c3.3,0,5.9-2.7,5.9-5.9c0-3.3-2.7-5.9-5.9-5.9c-3.3,0-5.9,2.7-5.9,5.9
			C365.8,362.9,368.5,365.5,371.8,365.5z"/>
		<circle class="st24" cx="371.8" cy="359.6" r="3.8"/>
		<g>
			<g>
				<path class="st21" d="M306.2,346.7c-0.4,3.5-1.2,11.1-0.2,18c1,6.7,3.6,12.6,9.8,13.4l-0.2,1.6c-7.2-0.8-10.2-7.4-11.2-14.7
					c-1-7.1-0.2-14.8,0.2-18.4L306.2,346.7z"/>
				<path class="st24" d="M317,377.3l2.2,0.3c0.8,0.1,1.4,0.8,1.3,1.7l0,0c-0.1,0.8-0.8,1.4-1.7,1.3l-2.2-0.3
					c-0.8-0.1-1.4-0.8-1.3-1.7l0,0C315.4,377.8,316.2,377.2,317,377.3z"/>
			</g>
			<g>
				<path class="st21" d="M316.9,347.9c-0.4,3.5-1.4,11.1-3.9,17.6c-2.4,6.3-6.3,11.5-12.6,10.8l-0.2,1.6
					c7.2,0.8,11.6-4.9,14.3-11.8c2.6-6.7,3.6-14.4,4-18L316.9,347.9z"/>
				<path class="st24" d="M299.6,375.5l-2.2-0.3c-0.8-0.1-1.6,0.5-1.7,1.3l0,0c-0.1,0.8,0.5,1.6,1.3,1.7l2.2,0.3
					c0.8,0.1,1.6-0.5,1.7-1.3l0,0C301,376.3,300.4,375.5,299.6,375.5z"/>
			</g>
			<path class="st21" d="M306.3,355.2c-0.1,1-1,1.7-2,1.6s-1.7-1-1.6-2l1.6-14.2c0.3-2.2,1.4-4.1,3-5.3c1.6-1.3,3.7-1.9,5.9-1.7
				c2.2,0.3,4.1,1.4,5.3,3c1.3,1.6,1.9,3.7,1.7,5.9l-1.6,14.2c-0.1,1-1,1.7-2,1.6s-1.7-1-1.6-2l1.6-14.2c0.1-1.2-0.2-2.3-0.9-3.2
				c-0.7-0.9-1.7-1.5-2.9-1.6c-1.2-0.1-2.3,0.2-3.2,0.9c-0.9,0.7-1.5,1.7-1.6,2.9L306.3,355.2z"/>
		</g>
	</g>
</g>
</svg>
